<mxfile host="Electron" agent="Mozilla/5.0 (Windows NT 10.0; Win64; x64) AppleWebKit/537.36 (KHTML, like Gecko) draw.io/24.7.17 Chrome/128.0.6613.36 Electron/32.0.1 Safari/537.36" version="24.7.17" pages="7">
  <diagram name="PÃ¡gina-1" id="1wUZ-EfjzlvygXfRWwDI">
    <mxGraphModel dx="2049" dy="1194" grid="1" gridSize="10" guides="1" tooltips="1" connect="1" arrows="1" fold="1" page="1" pageScale="1" pageWidth="827" pageHeight="1169" math="0" shadow="0">
      <root>
        <mxCell id="0" />
        <mxCell id="1" parent="0" />
        <mxCell id="2zW9s-T55Nb-p2NiVeMS-25" value="" style="ellipse;whiteSpace=wrap;html=1;aspect=fixed;" vertex="1" parent="1">
          <mxGeometry x="580" y="300" width="50" height="50" as="geometry" />
        </mxCell>
        <mxCell id="2zW9s-T55Nb-p2NiVeMS-26" value="" style="ellipse;whiteSpace=wrap;html=1;aspect=fixed;" vertex="1" parent="1">
          <mxGeometry x="710" y="300" width="50" height="50" as="geometry" />
        </mxCell>
        <mxCell id="2zW9s-T55Nb-p2NiVeMS-27" value="" style="ellipse;whiteSpace=wrap;html=1;aspect=fixed;" vertex="1" parent="1">
          <mxGeometry x="40" y="400" width="50" height="50" as="geometry" />
        </mxCell>
        <mxCell id="2zW9s-T55Nb-p2NiVeMS-28" value="" style="ellipse;whiteSpace=wrap;html=1;aspect=fixed;" vertex="1" parent="1">
          <mxGeometry x="160" y="400" width="50" height="50" as="geometry" />
        </mxCell>
        <mxCell id="2zW9s-T55Nb-p2NiVeMS-29" value="" style="ellipse;whiteSpace=wrap;html=1;aspect=fixed;" vertex="1" parent="1">
          <mxGeometry x="280" y="400" width="50" height="50" as="geometry" />
        </mxCell>
        <mxCell id="2zW9s-T55Nb-p2NiVeMS-30" value="" style="ellipse;whiteSpace=wrap;html=1;aspect=fixed;" vertex="1" parent="1">
          <mxGeometry x="390" y="400" width="50" height="50" as="geometry" />
        </mxCell>
        <mxCell id="2zW9s-T55Nb-p2NiVeMS-31" value="" style="ellipse;whiteSpace=wrap;html=1;aspect=fixed;" vertex="1" parent="1">
          <mxGeometry x="330" y="300" width="50" height="50" as="geometry" />
        </mxCell>
        <mxCell id="2zW9s-T55Nb-p2NiVeMS-32" value="" style="ellipse;whiteSpace=wrap;html=1;aspect=fixed;direction=south;" vertex="1" parent="1">
          <mxGeometry x="100" y="300" width="50" height="50" as="geometry" />
        </mxCell>
        <mxCell id="2zW9s-T55Nb-p2NiVeMS-33" value="" style="ellipse;whiteSpace=wrap;html=1;aspect=fixed;" vertex="1" parent="1">
          <mxGeometry x="640" y="190" width="50" height="50" as="geometry" />
        </mxCell>
        <mxCell id="2zW9s-T55Nb-p2NiVeMS-34" value="" style="ellipse;whiteSpace=wrap;html=1;aspect=fixed;" vertex="1" parent="1">
          <mxGeometry x="190" y="190" width="50" height="50" as="geometry" />
        </mxCell>
        <mxCell id="2zW9s-T55Nb-p2NiVeMS-35" value="" style="ellipse;whiteSpace=wrap;html=1;aspect=fixed;" vertex="1" parent="1">
          <mxGeometry x="390" y="100" width="50" height="50" as="geometry" />
        </mxCell>
        <mxCell id="2zW9s-T55Nb-p2NiVeMS-36" value="" style="ellipse;whiteSpace=wrap;html=1;aspect=fixed;" vertex="1" parent="1">
          <mxGeometry x="540" y="400" width="50" height="50" as="geometry" />
        </mxCell>
        <mxCell id="2zW9s-T55Nb-p2NiVeMS-37" value="" style="endArrow=none;html=1;rounded=0;entryX=0;entryY=0.5;entryDx=0;entryDy=0;exitX=0.5;exitY=0;exitDx=0;exitDy=0;" edge="1" parent="1" source="2zW9s-T55Nb-p2NiVeMS-34" target="2zW9s-T55Nb-p2NiVeMS-35">
          <mxGeometry width="50" height="50" relative="1" as="geometry">
            <mxPoint x="370" y="270" as="sourcePoint" />
            <mxPoint x="420" y="220" as="targetPoint" />
          </mxGeometry>
        </mxCell>
        <mxCell id="2zW9s-T55Nb-p2NiVeMS-38" value="" style="endArrow=none;html=1;rounded=0;entryX=0.5;entryY=0;entryDx=0;entryDy=0;exitX=1;exitY=0.5;exitDx=0;exitDy=0;" edge="1" parent="1" source="2zW9s-T55Nb-p2NiVeMS-35" target="2zW9s-T55Nb-p2NiVeMS-33">
          <mxGeometry width="50" height="50" relative="1" as="geometry">
            <mxPoint x="254" y="215" as="sourcePoint" />
            <mxPoint x="425" y="160" as="targetPoint" />
          </mxGeometry>
        </mxCell>
        <mxCell id="2zW9s-T55Nb-p2NiVeMS-39" value="" style="endArrow=none;html=1;rounded=0;entryX=0;entryY=0.5;entryDx=0;entryDy=0;exitX=0;exitY=1;exitDx=0;exitDy=0;" edge="1" parent="1" source="2zW9s-T55Nb-p2NiVeMS-34" target="2zW9s-T55Nb-p2NiVeMS-32">
          <mxGeometry width="50" height="50" relative="1" as="geometry">
            <mxPoint x="264" y="225" as="sourcePoint" />
            <mxPoint x="435" y="170" as="targetPoint" />
          </mxGeometry>
        </mxCell>
        <mxCell id="2zW9s-T55Nb-p2NiVeMS-40" value="" style="endArrow=none;html=1;rounded=0;entryX=0.5;entryY=0;entryDx=0;entryDy=0;exitX=1;exitY=1;exitDx=0;exitDy=0;" edge="1" parent="1" source="2zW9s-T55Nb-p2NiVeMS-34" target="2zW9s-T55Nb-p2NiVeMS-31">
          <mxGeometry width="50" height="50" relative="1" as="geometry">
            <mxPoint x="274" y="235" as="sourcePoint" />
            <mxPoint x="445" y="180" as="targetPoint" />
          </mxGeometry>
        </mxCell>
        <mxCell id="2zW9s-T55Nb-p2NiVeMS-41" value="" style="endArrow=none;html=1;rounded=0;entryX=0.5;entryY=0;entryDx=0;entryDy=0;exitX=1;exitY=1;exitDx=0;exitDy=0;" edge="1" parent="1" source="2zW9s-T55Nb-p2NiVeMS-31" target="2zW9s-T55Nb-p2NiVeMS-30">
          <mxGeometry width="50" height="50" relative="1" as="geometry">
            <mxPoint x="320" y="350" as="sourcePoint" />
            <mxPoint x="455" y="190" as="targetPoint" />
          </mxGeometry>
        </mxCell>
        <mxCell id="2zW9s-T55Nb-p2NiVeMS-42" value="" style="endArrow=none;html=1;rounded=0;entryX=0.5;entryY=0;entryDx=0;entryDy=0;exitX=0;exitY=1;exitDx=0;exitDy=0;" edge="1" parent="1" source="2zW9s-T55Nb-p2NiVeMS-31" target="2zW9s-T55Nb-p2NiVeMS-29">
          <mxGeometry width="50" height="50" relative="1" as="geometry">
            <mxPoint x="294" y="255" as="sourcePoint" />
            <mxPoint x="465" y="200" as="targetPoint" />
          </mxGeometry>
        </mxCell>
        <mxCell id="2zW9s-T55Nb-p2NiVeMS-43" value="" style="endArrow=none;html=1;rounded=0;entryX=0.5;entryY=0;entryDx=0;entryDy=0;exitX=1;exitY=0;exitDx=0;exitDy=0;" edge="1" parent="1" source="2zW9s-T55Nb-p2NiVeMS-32" target="2zW9s-T55Nb-p2NiVeMS-28">
          <mxGeometry width="50" height="50" relative="1" as="geometry">
            <mxPoint x="304" y="265" as="sourcePoint" />
            <mxPoint x="475" y="210" as="targetPoint" />
          </mxGeometry>
        </mxCell>
        <mxCell id="2zW9s-T55Nb-p2NiVeMS-44" value="" style="endArrow=none;html=1;rounded=0;entryX=0.5;entryY=0;entryDx=0;entryDy=0;exitX=1;exitY=1;exitDx=0;exitDy=0;" edge="1" parent="1" source="2zW9s-T55Nb-p2NiVeMS-32" target="2zW9s-T55Nb-p2NiVeMS-27">
          <mxGeometry width="50" height="50" relative="1" as="geometry">
            <mxPoint x="314" y="275" as="sourcePoint" />
            <mxPoint x="485" y="220" as="targetPoint" />
          </mxGeometry>
        </mxCell>
        <mxCell id="2zW9s-T55Nb-p2NiVeMS-45" value="" style="endArrow=none;html=1;rounded=0;exitX=0;exitY=1;exitDx=0;exitDy=0;entryX=0.5;entryY=0;entryDx=0;entryDy=0;" edge="1" parent="1" source="2zW9s-T55Nb-p2NiVeMS-33" target="2zW9s-T55Nb-p2NiVeMS-25">
          <mxGeometry width="50" height="50" relative="1" as="geometry">
            <mxPoint x="404" y="365" as="sourcePoint" />
            <mxPoint x="575" y="310" as="targetPoint" />
          </mxGeometry>
        </mxCell>
        <mxCell id="2zW9s-T55Nb-p2NiVeMS-46" value="" style="endArrow=none;html=1;rounded=0;entryX=1;entryY=1;entryDx=0;entryDy=0;exitX=0.5;exitY=0;exitDx=0;exitDy=0;" edge="1" parent="1" source="2zW9s-T55Nb-p2NiVeMS-26" target="2zW9s-T55Nb-p2NiVeMS-33">
          <mxGeometry width="50" height="50" relative="1" as="geometry">
            <mxPoint x="414" y="375" as="sourcePoint" />
            <mxPoint x="585" y="320" as="targetPoint" />
          </mxGeometry>
        </mxCell>
        <mxCell id="2zW9s-T55Nb-p2NiVeMS-47" value="" style="endArrow=none;html=1;rounded=0;entryX=0;entryY=1;entryDx=0;entryDy=0;exitX=0.5;exitY=0;exitDx=0;exitDy=0;" edge="1" parent="1" source="2zW9s-T55Nb-p2NiVeMS-36" target="2zW9s-T55Nb-p2NiVeMS-25">
          <mxGeometry width="50" height="50" relative="1" as="geometry">
            <mxPoint x="424" y="385" as="sourcePoint" />
            <mxPoint x="595" y="330" as="targetPoint" />
          </mxGeometry>
        </mxCell>
        <mxCell id="2zW9s-T55Nb-p2NiVeMS-48" value="" style="shape=image;verticalLabelPosition=bottom;labelBackgroundColor=default;verticalAlign=top;aspect=fixed;imageAspect=0;image=data:image/png,iVBORw0KGgoAAAANSUhEUgAAAUsAAAAiCAIAAABZWWzvAAAGy0lEQVR4Ae1b0Y2kMAy9nqhmpxVEMSsqWYlKVpo6ODmJw7NjQ9idBWlkPo5gnGf72U7C3N2/Na5gIBh4Xwb+vW9oEVkwEAys0eFRBMHAOzMQHf7O2Y3YgoHo8KiBYOCdGYgOf+fsRmzBQHR41EAw8M4MRIe/c3YjtmAgOjxqIBh4Zwaiw985uxFbMHCiw5+fj2FakLJlGvgaxYuv0Zbj5Hb8NQ4f8xPlDg55ki+lj3NhvOkPw/hVXzznD3ZzkP5XFWNAswAkayzj8Ji/lbYpVDr0CO5JECd8AyKJnHRgmMNwHOlSk/f4FNnw7CZ5S4uHs8kbGk0Lrb6KKCVRVmYLBOQMAyRrk3fVkjK9lc2WxC4cdpBSvIGs6xas6jWecPre2+ElAOCRqOFg6C2PV3K6VKqQ7/uWq7mCrKuHkzwppJAP4JJtAfxZv+cH++b6b6NkaUmwLM2cFdmcJVVKaEGjezTmfIO8h0Y3nO/5gaxaLoAsxcKULtPQ1+QtLSThuYTJjNG4yCEX4IAadugDUWoyPC5jJRaltEUB4YdEOWSersniQ2K7OpBqhklDAsHj88OODqdMEBGjaCdM25rWnlLNouu6szgMj3GCZWJdHRwZObaEHbzUrzpdjlVtGqQsDsM0Qr0mJ4fhMY114SAu0tFGCQUWPMju3bZ9J3yYKYZuOmih5I4VM8wHxSexxA1g6ju0pNV5m0gxZh8EvpMaNHSsD0sATlRjuzMVaeQPr0RqPj/aZMpAhM880bov0zBOak3fSCMOD1ccC1bJujp8TidbUXMKxmkYWb5qTn1c5nQa3FH2Xu25lOF/5Vj1kAbPzzl9iYiyWD7TZ4W0YgoFFj5QQfBW7xSHFz7CiDH48/x8PD74o+aoXXVVAY7AhweTFu2wGVcHONhZ8fxV5dpQfaEGXyOQwGzTnlnHlGE4d6j55bGHzOOazGB5sTCZSQq9odmebtKODmflHdeNV+S6+OBhGPduh+TgkHI6WYjv/xabymhc6M98lYzS9GlhkO1zowVoJKLDy1uzWE1hA0eC6l67ZjvhmzBViOmgMcOmeGGXqBO2gdgSaa7ogU2vGQlaMr2bDgWIdkmZoHu/8z19YXQz14xE4ERpKQMkJ507DlxCfYGZLCYJHPsbN0DwnD+SD+QMMlNVekOrE7zBCzo81YHpZT69H5182DUiiGuRZfXuBHzYRbl5KixnNyejVhhmrpp0BpYnphumsAEVhcLuNVqW0UYpC3bTcbxNbcsNfTyrXc4xSWLhIQWFnwZEhVEh5Cqq7cCnV1rfbY8DIMAhQso1Ld2/O2R8h8yOvNNZIK9udghE5ilmdgL+bYfv1hPZBTZ33KBXux3u4TgsV1O6toq+VYJ4YKvz24Eo5fLaTKop1Hjaf48uT67wetJR1zU113jU7BkqLBK06FTadZx/TDU6nzGbu8Tp5KRBSZVmrCyUi4PvcInlrAg6p3JSOrKJLUcx8Mr2Xtcz/3u0IZQiaXZdHV4zS8dbn2VZeDiikjq+ndQuxLDqZ4yubsyeKgeS0JxuCmu0ZcD+sJzp8uSsZ9xpSpMO5S3p9BexzIhhEkTSkGzFup5qQKkGaGW4qy8ttpM3iUGmscwd50tZrGQacgOf/aGg9MW7C/lw8KXAML33n+/hVIt1KUJzmDYas/eoY4330gk4qJbIUkughkb99K2V/RFZd2PRYPo4Wt6bxWEKG0ARAoSZXOXQUN4gZIEXAsoFFTYOFGuqtu7lACYSMtKLr/R4pxOSg75+H705yobkQiyRUzZzcpjHNjXlQMo1j2TqsfVJYoNSZjnL4m/LbPUfSH/a4Sn9aiWq1ZAIzS+hvUUwhqtIU35t4/BfRyUDlZ29Q76Dk5Ka3eS0ydI0nFQfnEXDrDYl9MMH98QGC/IjGnfTQXVcrg66AAraDzu2kxZqznwBDvysKDYr7GSJb/vjnPC7SAYy00pUvNxqYK+WTDJL8xegSvIhaSIKSHcBguaXnJx5OtHhZ2Bt3WWqwdsKv5M+50n+k7ifwX3PY+9vvOcMvCr8F+GcpOvPaCkkfo11hzhHq9S+hxzpw/b016RtltzRhR3+PT+Mnzdcz06/+BrFXnF6fpmwTLjG/xSlnfeq8F+Fc5Kuv6KlEPWcP16x+t9ETpvtLPlj0jyzQn5hhwu78RAMBANXMBAdfgXLYSMYuIuB6PC7mA+7wcAVDESHX8Fy2AgG7mIgOvwu5sNuMHAFA9HhV7AcNoKBuxiIDr+L+bAbDFzBQHT4FSyHjWDgLgaiw+9iPuwGA1cwEB1+BcthIxi4i4Ho8LuYD7vBwBUMRIdfwXLYCAbuYuA/ozxbzJ6dZBgAAAAASUVORK5CYII=;" vertex="1" parent="1">
          <mxGeometry x="59" y="60" width="331" height="34" as="geometry" />
        </mxCell>
      </root>
    </mxGraphModel>
  </diagram>
  <diagram name="2" id="d1rwe8-b7ucclzBOSgR2">
    <mxGraphModel dx="1434" dy="836" grid="1" gridSize="10" guides="1" tooltips="1" connect="1" arrows="1" fold="1" page="1" pageScale="1" pageWidth="827" pageHeight="1169" math="0" shadow="0">
      <root>
        <mxCell id="GDM9vYl1jh3NMEa77XE--0" />
        <mxCell id="GDM9vYl1jh3NMEa77XE--1" parent="GDM9vYl1jh3NMEa77XE--0" />
        <mxCell id="GDM9vYl1jh3NMEa77XE--5" value="25" style="ellipse;whiteSpace=wrap;html=1;aspect=fixed;" vertex="1" parent="GDM9vYl1jh3NMEa77XE--1">
          <mxGeometry x="560" y="280" width="50" height="50" as="geometry" />
        </mxCell>
        <mxCell id="GDM9vYl1jh3NMEa77XE--7" value="9" style="ellipse;whiteSpace=wrap;html=1;aspect=fixed;" vertex="1" parent="GDM9vYl1jh3NMEa77XE--1">
          <mxGeometry x="690" y="280" width="50" height="50" as="geometry" />
        </mxCell>
        <mxCell id="GDM9vYl1jh3NMEa77XE--12" value="103" style="ellipse;whiteSpace=wrap;html=1;aspect=fixed;" vertex="1" parent="GDM9vYl1jh3NMEa77XE--1">
          <mxGeometry x="20" y="380" width="50" height="50" as="geometry" />
        </mxCell>
        <mxCell id="GDM9vYl1jh3NMEa77XE--13" value="37" style="ellipse;whiteSpace=wrap;html=1;aspect=fixed;" vertex="1" parent="GDM9vYl1jh3NMEa77XE--1">
          <mxGeometry x="140" y="380" width="50" height="50" as="geometry" />
        </mxCell>
        <mxCell id="GDM9vYl1jh3NMEa77XE--14" value="59" style="ellipse;whiteSpace=wrap;html=1;aspect=fixed;" vertex="1" parent="GDM9vYl1jh3NMEa77XE--1">
          <mxGeometry x="260" y="380" width="50" height="50" as="geometry" />
        </mxCell>
        <mxCell id="GDM9vYl1jh3NMEa77XE--15" value="53" style="ellipse;whiteSpace=wrap;html=1;aspect=fixed;" vertex="1" parent="GDM9vYl1jh3NMEa77XE--1">
          <mxGeometry x="370" y="380" width="50" height="50" as="geometry" />
        </mxCell>
        <mxCell id="GDM9vYl1jh3NMEa77XE--16" value="83" style="ellipse;whiteSpace=wrap;html=1;aspect=fixed;" vertex="1" parent="GDM9vYl1jh3NMEa77XE--1">
          <mxGeometry x="310" y="280" width="50" height="50" as="geometry" />
        </mxCell>
        <mxCell id="GDM9vYl1jh3NMEa77XE--17" value="111" style="ellipse;whiteSpace=wrap;html=1;aspect=fixed;direction=south;" vertex="1" parent="GDM9vYl1jh3NMEa77XE--1">
          <mxGeometry x="80" y="280" width="50" height="50" as="geometry" />
        </mxCell>
        <mxCell id="GDM9vYl1jh3NMEa77XE--18" value="66" style="ellipse;whiteSpace=wrap;html=1;aspect=fixed;" vertex="1" parent="GDM9vYl1jh3NMEa77XE--1">
          <mxGeometry x="620" y="170" width="50" height="50" as="geometry" />
        </mxCell>
        <mxCell id="GDM9vYl1jh3NMEa77XE--19" value="133" style="ellipse;whiteSpace=wrap;html=1;aspect=fixed;" vertex="1" parent="GDM9vYl1jh3NMEa77XE--1">
          <mxGeometry x="170" y="170" width="50" height="50" as="geometry" />
        </mxCell>
        <mxCell id="GDM9vYl1jh3NMEa77XE--20" value="123" style="ellipse;whiteSpace=wrap;html=1;aspect=fixed;" vertex="1" parent="GDM9vYl1jh3NMEa77XE--1">
          <mxGeometry x="370" y="80" width="50" height="50" as="geometry" />
        </mxCell>
        <mxCell id="GDM9vYl1jh3NMEa77XE--21" value="42" style="ellipse;whiteSpace=wrap;html=1;aspect=fixed;" vertex="1" parent="GDM9vYl1jh3NMEa77XE--1">
          <mxGeometry x="520" y="380" width="50" height="50" as="geometry" />
        </mxCell>
        <mxCell id="GDM9vYl1jh3NMEa77XE--23" value="" style="endArrow=none;html=1;rounded=0;entryX=0;entryY=0.5;entryDx=0;entryDy=0;exitX=0.5;exitY=0;exitDx=0;exitDy=0;" edge="1" parent="GDM9vYl1jh3NMEa77XE--1" source="GDM9vYl1jh3NMEa77XE--19" target="GDM9vYl1jh3NMEa77XE--20">
          <mxGeometry width="50" height="50" relative="1" as="geometry">
            <mxPoint x="350" y="250" as="sourcePoint" />
            <mxPoint x="400" y="200" as="targetPoint" />
          </mxGeometry>
        </mxCell>
        <mxCell id="GDM9vYl1jh3NMEa77XE--24" value="" style="endArrow=none;html=1;rounded=0;entryX=0.5;entryY=0;entryDx=0;entryDy=0;exitX=1;exitY=0.5;exitDx=0;exitDy=0;" edge="1" parent="GDM9vYl1jh3NMEa77XE--1" source="GDM9vYl1jh3NMEa77XE--20" target="GDM9vYl1jh3NMEa77XE--18">
          <mxGeometry width="50" height="50" relative="1" as="geometry">
            <mxPoint x="234" y="195" as="sourcePoint" />
            <mxPoint x="405" y="140" as="targetPoint" />
          </mxGeometry>
        </mxCell>
        <mxCell id="GDM9vYl1jh3NMEa77XE--25" value="" style="endArrow=none;html=1;rounded=0;entryX=0;entryY=0.5;entryDx=0;entryDy=0;exitX=0;exitY=1;exitDx=0;exitDy=0;" edge="1" parent="GDM9vYl1jh3NMEa77XE--1" source="GDM9vYl1jh3NMEa77XE--19" target="GDM9vYl1jh3NMEa77XE--17">
          <mxGeometry width="50" height="50" relative="1" as="geometry">
            <mxPoint x="244" y="205" as="sourcePoint" />
            <mxPoint x="415" y="150" as="targetPoint" />
          </mxGeometry>
        </mxCell>
        <mxCell id="GDM9vYl1jh3NMEa77XE--26" value="" style="endArrow=none;html=1;rounded=0;entryX=0.5;entryY=0;entryDx=0;entryDy=0;exitX=1;exitY=1;exitDx=0;exitDy=0;" edge="1" parent="GDM9vYl1jh3NMEa77XE--1" source="GDM9vYl1jh3NMEa77XE--19" target="GDM9vYl1jh3NMEa77XE--16">
          <mxGeometry width="50" height="50" relative="1" as="geometry">
            <mxPoint x="254" y="215" as="sourcePoint" />
            <mxPoint x="425" y="160" as="targetPoint" />
          </mxGeometry>
        </mxCell>
        <mxCell id="GDM9vYl1jh3NMEa77XE--27" value="" style="endArrow=none;html=1;rounded=0;entryX=0.5;entryY=0;entryDx=0;entryDy=0;exitX=1;exitY=1;exitDx=0;exitDy=0;" edge="1" parent="GDM9vYl1jh3NMEa77XE--1" source="GDM9vYl1jh3NMEa77XE--16" target="GDM9vYl1jh3NMEa77XE--15">
          <mxGeometry width="50" height="50" relative="1" as="geometry">
            <mxPoint x="300" y="330" as="sourcePoint" />
            <mxPoint x="435" y="170" as="targetPoint" />
          </mxGeometry>
        </mxCell>
        <mxCell id="GDM9vYl1jh3NMEa77XE--28" value="" style="endArrow=none;html=1;rounded=0;entryX=0.5;entryY=0;entryDx=0;entryDy=0;exitX=0;exitY=1;exitDx=0;exitDy=0;" edge="1" parent="GDM9vYl1jh3NMEa77XE--1" source="GDM9vYl1jh3NMEa77XE--16" target="GDM9vYl1jh3NMEa77XE--14">
          <mxGeometry width="50" height="50" relative="1" as="geometry">
            <mxPoint x="274" y="235" as="sourcePoint" />
            <mxPoint x="445" y="180" as="targetPoint" />
          </mxGeometry>
        </mxCell>
        <mxCell id="GDM9vYl1jh3NMEa77XE--29" value="" style="endArrow=none;html=1;rounded=0;entryX=0.5;entryY=0;entryDx=0;entryDy=0;exitX=1;exitY=0;exitDx=0;exitDy=0;" edge="1" parent="GDM9vYl1jh3NMEa77XE--1" source="GDM9vYl1jh3NMEa77XE--17" target="GDM9vYl1jh3NMEa77XE--13">
          <mxGeometry width="50" height="50" relative="1" as="geometry">
            <mxPoint x="284" y="245" as="sourcePoint" />
            <mxPoint x="455" y="190" as="targetPoint" />
          </mxGeometry>
        </mxCell>
        <mxCell id="GDM9vYl1jh3NMEa77XE--30" value="" style="endArrow=none;html=1;rounded=0;entryX=0.5;entryY=0;entryDx=0;entryDy=0;exitX=1;exitY=1;exitDx=0;exitDy=0;" edge="1" parent="GDM9vYl1jh3NMEa77XE--1" source="GDM9vYl1jh3NMEa77XE--17" target="GDM9vYl1jh3NMEa77XE--12">
          <mxGeometry width="50" height="50" relative="1" as="geometry">
            <mxPoint x="294" y="255" as="sourcePoint" />
            <mxPoint x="465" y="200" as="targetPoint" />
          </mxGeometry>
        </mxCell>
        <mxCell id="GDM9vYl1jh3NMEa77XE--37" value="" style="endArrow=none;html=1;rounded=0;exitX=0;exitY=1;exitDx=0;exitDy=0;entryX=0.5;entryY=0;entryDx=0;entryDy=0;" edge="1" parent="GDM9vYl1jh3NMEa77XE--1" source="GDM9vYl1jh3NMEa77XE--18" target="GDM9vYl1jh3NMEa77XE--5">
          <mxGeometry width="50" height="50" relative="1" as="geometry">
            <mxPoint x="384" y="345" as="sourcePoint" />
            <mxPoint x="555" y="290" as="targetPoint" />
          </mxGeometry>
        </mxCell>
        <mxCell id="GDM9vYl1jh3NMEa77XE--38" value="" style="endArrow=none;html=1;rounded=0;entryX=1;entryY=1;entryDx=0;entryDy=0;exitX=0.5;exitY=0;exitDx=0;exitDy=0;" edge="1" parent="GDM9vYl1jh3NMEa77XE--1" source="GDM9vYl1jh3NMEa77XE--7" target="GDM9vYl1jh3NMEa77XE--18">
          <mxGeometry width="50" height="50" relative="1" as="geometry">
            <mxPoint x="394" y="355" as="sourcePoint" />
            <mxPoint x="565" y="300" as="targetPoint" />
          </mxGeometry>
        </mxCell>
        <mxCell id="GDM9vYl1jh3NMEa77XE--39" value="" style="endArrow=none;html=1;rounded=0;entryX=0;entryY=1;entryDx=0;entryDy=0;exitX=0.5;exitY=0;exitDx=0;exitDy=0;" edge="1" parent="GDM9vYl1jh3NMEa77XE--1" source="GDM9vYl1jh3NMEa77XE--21" target="GDM9vYl1jh3NMEa77XE--5">
          <mxGeometry width="50" height="50" relative="1" as="geometry">
            <mxPoint x="404" y="365" as="sourcePoint" />
            <mxPoint x="575" y="310" as="targetPoint" />
          </mxGeometry>
        </mxCell>
        <mxCell id="GDM9vYl1jh3NMEa77XE--43" value="" style="shape=image;verticalLabelPosition=bottom;labelBackgroundColor=default;verticalAlign=top;aspect=fixed;imageAspect=0;image=data:image/png,iVBORw0KGgoAAAANSUhEUgAAAUsAAAAiCAIAAABZWWzvAAAGy0lEQVR4Ae1b0Y2kMAy9nqhmpxVEMSsqWYlKVpo6ODmJw7NjQ9idBWlkPo5gnGf72U7C3N2/Na5gIBh4Xwb+vW9oEVkwEAys0eFRBMHAOzMQHf7O2Y3YgoHo8KiBYOCdGYgOf+fsRmzBQHR41EAw8M4MRIe/c3YjtmAgOjxqIBh4Zwaiw985uxFbMHCiw5+fj2FakLJlGvgaxYuv0Zbj5Hb8NQ4f8xPlDg55ki+lj3NhvOkPw/hVXzznD3ZzkP5XFWNAswAkayzj8Ji/lbYpVDr0CO5JECd8AyKJnHRgmMNwHOlSk/f4FNnw7CZ5S4uHs8kbGk0Lrb6KKCVRVmYLBOQMAyRrk3fVkjK9lc2WxC4cdpBSvIGs6xas6jWecPre2+ElAOCRqOFg6C2PV3K6VKqQ7/uWq7mCrKuHkzwppJAP4JJtAfxZv+cH++b6b6NkaUmwLM2cFdmcJVVKaEGjezTmfIO8h0Y3nO/5gaxaLoAsxcKULtPQ1+QtLSThuYTJjNG4yCEX4IAadugDUWoyPC5jJRaltEUB4YdEOWSersniQ2K7OpBqhklDAsHj88OODqdMEBGjaCdM25rWnlLNouu6szgMj3GCZWJdHRwZObaEHbzUrzpdjlVtGqQsDsM0Qr0mJ4fhMY114SAu0tFGCQUWPMju3bZ9J3yYKYZuOmih5I4VM8wHxSexxA1g6ju0pNV5m0gxZh8EvpMaNHSsD0sATlRjuzMVaeQPr0RqPj/aZMpAhM880bov0zBOak3fSCMOD1ccC1bJujp8TidbUXMKxmkYWb5qTn1c5nQa3FH2Xu25lOF/5Vj1kAbPzzl9iYiyWD7TZ4W0YgoFFj5QQfBW7xSHFz7CiDH48/x8PD74o+aoXXVVAY7AhweTFu2wGVcHONhZ8fxV5dpQfaEGXyOQwGzTnlnHlGE4d6j55bGHzOOazGB5sTCZSQq9odmebtKODmflHdeNV+S6+OBhGPduh+TgkHI6WYjv/xabymhc6M98lYzS9GlhkO1zowVoJKLDy1uzWE1hA0eC6l67ZjvhmzBViOmgMcOmeGGXqBO2gdgSaa7ogU2vGQlaMr2bDgWIdkmZoHu/8z19YXQz14xE4ERpKQMkJ507DlxCfYGZLCYJHPsbN0DwnD+SD+QMMlNVekOrE7zBCzo81YHpZT69H5182DUiiGuRZfXuBHzYRbl5KixnNyejVhhmrpp0BpYnphumsAEVhcLuNVqW0UYpC3bTcbxNbcsNfTyrXc4xSWLhIQWFnwZEhVEh5Cqq7cCnV1rfbY8DIMAhQso1Ld2/O2R8h8yOvNNZIK9udghE5ilmdgL+bYfv1hPZBTZ33KBXux3u4TgsV1O6toq+VYJ4YKvz24Eo5fLaTKop1Hjaf48uT67wetJR1zU113jU7BkqLBK06FTadZx/TDU6nzGbu8Tp5KRBSZVmrCyUi4PvcInlrAg6p3JSOrKJLUcx8Mr2Xtcz/3u0IZQiaXZdHV4zS8dbn2VZeDiikjq+ndQuxLDqZ4yubsyeKgeS0JxuCmu0ZcD+sJzp8uSsZ9xpSpMO5S3p9BexzIhhEkTSkGzFup5qQKkGaGW4qy8ttpM3iUGmscwd50tZrGQacgOf/aGg9MW7C/lw8KXAML33n+/hVIt1KUJzmDYas/eoY4330gk4qJbIUkughkb99K2V/RFZd2PRYPo4Wt6bxWEKG0ARAoSZXOXQUN4gZIEXAsoFFTYOFGuqtu7lACYSMtKLr/R4pxOSg75+H705yobkQiyRUzZzcpjHNjXlQMo1j2TqsfVJYoNSZjnL4m/LbPUfSH/a4Sn9aiWq1ZAIzS+hvUUwhqtIU35t4/BfRyUDlZ29Q76Dk5Ka3eS0ydI0nFQfnEXDrDYl9MMH98QGC/IjGnfTQXVcrg66AAraDzu2kxZqznwBDvysKDYr7GSJb/vjnPC7SAYy00pUvNxqYK+WTDJL8xegSvIhaSIKSHcBguaXnJx5OtHhZ2Bt3WWqwdsKv5M+50n+k7ifwX3PY+9vvOcMvCr8F+GcpOvPaCkkfo11hzhHq9S+hxzpw/b016RtltzRhR3+PT+Mnzdcz06/+BrFXnF6fpmwTLjG/xSlnfeq8F+Fc5Kuv6KlEPWcP16x+t9ETpvtLPlj0jyzQn5hhwu78RAMBANXMBAdfgXLYSMYuIuB6PC7mA+7wcAVDESHX8Fy2AgG7mIgOvwu5sNuMHAFA9HhV7AcNoKBuxiIDr+L+bAbDFzBQHT4FSyHjWDgLgaiw+9iPuwGA1cwEB1+BcthIxi4i4Ho8LuYD7vBwBUMRIdfwXLYCAbuYuA/ozxbzJ6dZBgAAAAASUVORK5CYII=;" vertex="1" parent="GDM9vYl1jh3NMEa77XE--1">
          <mxGeometry x="39" y="40" width="331" height="34" as="geometry" />
        </mxCell>
      </root>
    </mxGraphModel>
  </diagram>
  <diagram name="3" id="cJbqd3deCNzJ1CCVbDrs">
    <mxGraphModel dx="1434" dy="836" grid="1" gridSize="10" guides="1" tooltips="1" connect="1" arrows="1" fold="1" page="1" pageScale="1" pageWidth="827" pageHeight="1169" math="0" shadow="0">
      <root>
        <mxCell id="6fCxlEUbeOfGK09BT6zv-0" />
        <mxCell id="6fCxlEUbeOfGK09BT6zv-1" parent="6fCxlEUbeOfGK09BT6zv-0" />
        <mxCell id="6fCxlEUbeOfGK09BT6zv-2" value="25" style="ellipse;whiteSpace=wrap;html=1;aspect=fixed;" vertex="1" parent="6fCxlEUbeOfGK09BT6zv-1">
          <mxGeometry x="560" y="280" width="50" height="50" as="geometry" />
        </mxCell>
        <mxCell id="6fCxlEUbeOfGK09BT6zv-3" value="9" style="ellipse;whiteSpace=wrap;html=1;aspect=fixed;" vertex="1" parent="6fCxlEUbeOfGK09BT6zv-1">
          <mxGeometry x="690" y="280" width="50" height="50" as="geometry" />
        </mxCell>
        <mxCell id="6fCxlEUbeOfGK09BT6zv-4" value="103" style="ellipse;whiteSpace=wrap;html=1;aspect=fixed;" vertex="1" parent="6fCxlEUbeOfGK09BT6zv-1">
          <mxGeometry x="20" y="380" width="50" height="50" as="geometry" />
        </mxCell>
        <mxCell id="6fCxlEUbeOfGK09BT6zv-5" value="37" style="ellipse;whiteSpace=wrap;html=1;aspect=fixed;" vertex="1" parent="6fCxlEUbeOfGK09BT6zv-1">
          <mxGeometry x="140" y="380" width="50" height="50" as="geometry" />
        </mxCell>
        <mxCell id="6fCxlEUbeOfGK09BT6zv-6" value="59" style="ellipse;whiteSpace=wrap;html=1;aspect=fixed;" vertex="1" parent="6fCxlEUbeOfGK09BT6zv-1">
          <mxGeometry x="260" y="380" width="50" height="50" as="geometry" />
        </mxCell>
        <mxCell id="6fCxlEUbeOfGK09BT6zv-7" value="83" style="ellipse;whiteSpace=wrap;html=1;aspect=fixed;fillColor=#1ba1e2;fontColor=#ffffff;strokeColor=#006EAF;" vertex="1" parent="6fCxlEUbeOfGK09BT6zv-1">
          <mxGeometry x="370" y="380" width="50" height="50" as="geometry" />
        </mxCell>
        <mxCell id="6fCxlEUbeOfGK09BT6zv-8" value="53" style="ellipse;whiteSpace=wrap;html=1;aspect=fixed;fillColor=#1ba1e2;fontColor=#ffffff;strokeColor=#006EAF;" vertex="1" parent="6fCxlEUbeOfGK09BT6zv-1">
          <mxGeometry x="310" y="280" width="50" height="50" as="geometry" />
        </mxCell>
        <mxCell id="6fCxlEUbeOfGK09BT6zv-9" value="111" style="ellipse;whiteSpace=wrap;html=1;aspect=fixed;direction=south;" vertex="1" parent="6fCxlEUbeOfGK09BT6zv-1">
          <mxGeometry x="80" y="280" width="50" height="50" as="geometry" />
        </mxCell>
        <mxCell id="6fCxlEUbeOfGK09BT6zv-10" value="66" style="ellipse;whiteSpace=wrap;html=1;aspect=fixed;" vertex="1" parent="6fCxlEUbeOfGK09BT6zv-1">
          <mxGeometry x="620" y="170" width="50" height="50" as="geometry" />
        </mxCell>
        <mxCell id="6fCxlEUbeOfGK09BT6zv-11" value="133" style="ellipse;whiteSpace=wrap;html=1;aspect=fixed;" vertex="1" parent="6fCxlEUbeOfGK09BT6zv-1">
          <mxGeometry x="170" y="170" width="50" height="50" as="geometry" />
        </mxCell>
        <mxCell id="6fCxlEUbeOfGK09BT6zv-12" value="123" style="ellipse;whiteSpace=wrap;html=1;aspect=fixed;" vertex="1" parent="6fCxlEUbeOfGK09BT6zv-1">
          <mxGeometry x="370" y="80" width="50" height="50" as="geometry" />
        </mxCell>
        <mxCell id="6fCxlEUbeOfGK09BT6zv-13" value="42" style="ellipse;whiteSpace=wrap;html=1;aspect=fixed;" vertex="1" parent="6fCxlEUbeOfGK09BT6zv-1">
          <mxGeometry x="520" y="380" width="50" height="50" as="geometry" />
        </mxCell>
        <mxCell id="6fCxlEUbeOfGK09BT6zv-14" value="" style="endArrow=none;html=1;rounded=0;entryX=0;entryY=0.5;entryDx=0;entryDy=0;exitX=0.5;exitY=0;exitDx=0;exitDy=0;" edge="1" parent="6fCxlEUbeOfGK09BT6zv-1" source="6fCxlEUbeOfGK09BT6zv-11" target="6fCxlEUbeOfGK09BT6zv-12">
          <mxGeometry width="50" height="50" relative="1" as="geometry">
            <mxPoint x="350" y="250" as="sourcePoint" />
            <mxPoint x="400" y="200" as="targetPoint" />
          </mxGeometry>
        </mxCell>
        <mxCell id="6fCxlEUbeOfGK09BT6zv-15" value="" style="endArrow=none;html=1;rounded=0;entryX=0.5;entryY=0;entryDx=0;entryDy=0;exitX=1;exitY=0.5;exitDx=0;exitDy=0;" edge="1" parent="6fCxlEUbeOfGK09BT6zv-1" source="6fCxlEUbeOfGK09BT6zv-12" target="6fCxlEUbeOfGK09BT6zv-10">
          <mxGeometry width="50" height="50" relative="1" as="geometry">
            <mxPoint x="234" y="195" as="sourcePoint" />
            <mxPoint x="405" y="140" as="targetPoint" />
          </mxGeometry>
        </mxCell>
        <mxCell id="6fCxlEUbeOfGK09BT6zv-16" value="" style="endArrow=none;html=1;rounded=0;entryX=0;entryY=0.5;entryDx=0;entryDy=0;exitX=0;exitY=1;exitDx=0;exitDy=0;" edge="1" parent="6fCxlEUbeOfGK09BT6zv-1" source="6fCxlEUbeOfGK09BT6zv-11" target="6fCxlEUbeOfGK09BT6zv-9">
          <mxGeometry width="50" height="50" relative="1" as="geometry">
            <mxPoint x="244" y="205" as="sourcePoint" />
            <mxPoint x="415" y="150" as="targetPoint" />
          </mxGeometry>
        </mxCell>
        <mxCell id="6fCxlEUbeOfGK09BT6zv-17" value="" style="endArrow=none;html=1;rounded=0;entryX=0.5;entryY=0;entryDx=0;entryDy=0;exitX=1;exitY=1;exitDx=0;exitDy=0;" edge="1" parent="6fCxlEUbeOfGK09BT6zv-1" source="6fCxlEUbeOfGK09BT6zv-11" target="6fCxlEUbeOfGK09BT6zv-8">
          <mxGeometry width="50" height="50" relative="1" as="geometry">
            <mxPoint x="254" y="215" as="sourcePoint" />
            <mxPoint x="425" y="160" as="targetPoint" />
          </mxGeometry>
        </mxCell>
        <mxCell id="6fCxlEUbeOfGK09BT6zv-18" value="" style="endArrow=none;html=1;rounded=0;entryX=0.5;entryY=0;entryDx=0;entryDy=0;exitX=1;exitY=1;exitDx=0;exitDy=0;" edge="1" parent="6fCxlEUbeOfGK09BT6zv-1" source="6fCxlEUbeOfGK09BT6zv-8" target="6fCxlEUbeOfGK09BT6zv-7">
          <mxGeometry width="50" height="50" relative="1" as="geometry">
            <mxPoint x="300" y="330" as="sourcePoint" />
            <mxPoint x="435" y="170" as="targetPoint" />
          </mxGeometry>
        </mxCell>
        <mxCell id="6fCxlEUbeOfGK09BT6zv-19" value="" style="endArrow=none;html=1;rounded=0;entryX=0.5;entryY=0;entryDx=0;entryDy=0;exitX=0;exitY=1;exitDx=0;exitDy=0;" edge="1" parent="6fCxlEUbeOfGK09BT6zv-1" source="6fCxlEUbeOfGK09BT6zv-8" target="6fCxlEUbeOfGK09BT6zv-6">
          <mxGeometry width="50" height="50" relative="1" as="geometry">
            <mxPoint x="274" y="235" as="sourcePoint" />
            <mxPoint x="445" y="180" as="targetPoint" />
          </mxGeometry>
        </mxCell>
        <mxCell id="6fCxlEUbeOfGK09BT6zv-20" value="" style="endArrow=none;html=1;rounded=0;entryX=0.5;entryY=0;entryDx=0;entryDy=0;exitX=1;exitY=0;exitDx=0;exitDy=0;" edge="1" parent="6fCxlEUbeOfGK09BT6zv-1" source="6fCxlEUbeOfGK09BT6zv-9" target="6fCxlEUbeOfGK09BT6zv-5">
          <mxGeometry width="50" height="50" relative="1" as="geometry">
            <mxPoint x="284" y="245" as="sourcePoint" />
            <mxPoint x="455" y="190" as="targetPoint" />
          </mxGeometry>
        </mxCell>
        <mxCell id="6fCxlEUbeOfGK09BT6zv-21" value="" style="endArrow=none;html=1;rounded=0;entryX=0.5;entryY=0;entryDx=0;entryDy=0;exitX=1;exitY=1;exitDx=0;exitDy=0;" edge="1" parent="6fCxlEUbeOfGK09BT6zv-1" source="6fCxlEUbeOfGK09BT6zv-9" target="6fCxlEUbeOfGK09BT6zv-4">
          <mxGeometry width="50" height="50" relative="1" as="geometry">
            <mxPoint x="294" y="255" as="sourcePoint" />
            <mxPoint x="465" y="200" as="targetPoint" />
          </mxGeometry>
        </mxCell>
        <mxCell id="6fCxlEUbeOfGK09BT6zv-22" value="" style="endArrow=none;html=1;rounded=0;exitX=0;exitY=1;exitDx=0;exitDy=0;entryX=0.5;entryY=0;entryDx=0;entryDy=0;" edge="1" parent="6fCxlEUbeOfGK09BT6zv-1" source="6fCxlEUbeOfGK09BT6zv-10" target="6fCxlEUbeOfGK09BT6zv-2">
          <mxGeometry width="50" height="50" relative="1" as="geometry">
            <mxPoint x="384" y="345" as="sourcePoint" />
            <mxPoint x="555" y="290" as="targetPoint" />
          </mxGeometry>
        </mxCell>
        <mxCell id="6fCxlEUbeOfGK09BT6zv-23" value="" style="endArrow=none;html=1;rounded=0;entryX=1;entryY=1;entryDx=0;entryDy=0;exitX=0.5;exitY=0;exitDx=0;exitDy=0;" edge="1" parent="6fCxlEUbeOfGK09BT6zv-1" source="6fCxlEUbeOfGK09BT6zv-3" target="6fCxlEUbeOfGK09BT6zv-10">
          <mxGeometry width="50" height="50" relative="1" as="geometry">
            <mxPoint x="394" y="355" as="sourcePoint" />
            <mxPoint x="565" y="300" as="targetPoint" />
          </mxGeometry>
        </mxCell>
        <mxCell id="6fCxlEUbeOfGK09BT6zv-24" value="" style="endArrow=none;html=1;rounded=0;entryX=0;entryY=1;entryDx=0;entryDy=0;exitX=0.5;exitY=0;exitDx=0;exitDy=0;" edge="1" parent="6fCxlEUbeOfGK09BT6zv-1" source="6fCxlEUbeOfGK09BT6zv-13" target="6fCxlEUbeOfGK09BT6zv-2">
          <mxGeometry width="50" height="50" relative="1" as="geometry">
            <mxPoint x="404" y="365" as="sourcePoint" />
            <mxPoint x="575" y="310" as="targetPoint" />
          </mxGeometry>
        </mxCell>
        <mxCell id="6fCxlEUbeOfGK09BT6zv-25" value="" style="shape=image;verticalLabelPosition=bottom;labelBackgroundColor=default;verticalAlign=top;aspect=fixed;imageAspect=0;image=data:image/png,iVBORw0KGgoAAAANSUhEUgAAAUsAAAAiCAIAAABZWWzvAAAGy0lEQVR4Ae1b0Y2kMAy9nqhmpxVEMSsqWYlKVpo6ODmJw7NjQ9idBWlkPo5gnGf72U7C3N2/Na5gIBh4Xwb+vW9oEVkwEAys0eFRBMHAOzMQHf7O2Y3YgoHo8KiBYOCdGYgOf+fsRmzBQHR41EAw8M4MRIe/c3YjtmAgOjxqIBh4Zwaiw985uxFbMHCiw5+fj2FakLJlGvgaxYuv0Zbj5Hb8NQ4f8xPlDg55ki+lj3NhvOkPw/hVXzznD3ZzkP5XFWNAswAkayzj8Ji/lbYpVDr0CO5JECd8AyKJnHRgmMNwHOlSk/f4FNnw7CZ5S4uHs8kbGk0Lrb6KKCVRVmYLBOQMAyRrk3fVkjK9lc2WxC4cdpBSvIGs6xas6jWecPre2+ElAOCRqOFg6C2PV3K6VKqQ7/uWq7mCrKuHkzwppJAP4JJtAfxZv+cH++b6b6NkaUmwLM2cFdmcJVVKaEGjezTmfIO8h0Y3nO/5gaxaLoAsxcKULtPQ1+QtLSThuYTJjNG4yCEX4IAadugDUWoyPC5jJRaltEUB4YdEOWSersniQ2K7OpBqhklDAsHj88OODqdMEBGjaCdM25rWnlLNouu6szgMj3GCZWJdHRwZObaEHbzUrzpdjlVtGqQsDsM0Qr0mJ4fhMY114SAu0tFGCQUWPMju3bZ9J3yYKYZuOmih5I4VM8wHxSexxA1g6ju0pNV5m0gxZh8EvpMaNHSsD0sATlRjuzMVaeQPr0RqPj/aZMpAhM880bov0zBOak3fSCMOD1ccC1bJujp8TidbUXMKxmkYWb5qTn1c5nQa3FH2Xu25lOF/5Vj1kAbPzzl9iYiyWD7TZ4W0YgoFFj5QQfBW7xSHFz7CiDH48/x8PD74o+aoXXVVAY7AhweTFu2wGVcHONhZ8fxV5dpQfaEGXyOQwGzTnlnHlGE4d6j55bGHzOOazGB5sTCZSQq9odmebtKODmflHdeNV+S6+OBhGPduh+TgkHI6WYjv/xabymhc6M98lYzS9GlhkO1zowVoJKLDy1uzWE1hA0eC6l67ZjvhmzBViOmgMcOmeGGXqBO2gdgSaa7ogU2vGQlaMr2bDgWIdkmZoHu/8z19YXQz14xE4ERpKQMkJ507DlxCfYGZLCYJHPsbN0DwnD+SD+QMMlNVekOrE7zBCzo81YHpZT69H5182DUiiGuRZfXuBHzYRbl5KixnNyejVhhmrpp0BpYnphumsAEVhcLuNVqW0UYpC3bTcbxNbcsNfTyrXc4xSWLhIQWFnwZEhVEh5Cqq7cCnV1rfbY8DIMAhQso1Ld2/O2R8h8yOvNNZIK9udghE5ilmdgL+bYfv1hPZBTZ33KBXux3u4TgsV1O6toq+VYJ4YKvz24Eo5fLaTKop1Hjaf48uT67wetJR1zU113jU7BkqLBK06FTadZx/TDU6nzGbu8Tp5KRBSZVmrCyUi4PvcInlrAg6p3JSOrKJLUcx8Mr2Xtcz/3u0IZQiaXZdHV4zS8dbn2VZeDiikjq+ndQuxLDqZ4yubsyeKgeS0JxuCmu0ZcD+sJzp8uSsZ9xpSpMO5S3p9BexzIhhEkTSkGzFup5qQKkGaGW4qy8ttpM3iUGmscwd50tZrGQacgOf/aGg9MW7C/lw8KXAML33n+/hVIt1KUJzmDYas/eoY4330gk4qJbIUkughkb99K2V/RFZd2PRYPo4Wt6bxWEKG0ARAoSZXOXQUN4gZIEXAsoFFTYOFGuqtu7lACYSMtKLr/R4pxOSg75+H705yobkQiyRUzZzcpjHNjXlQMo1j2TqsfVJYoNSZjnL4m/LbPUfSH/a4Sn9aiWq1ZAIzS+hvUUwhqtIU35t4/BfRyUDlZ29Q76Dk5Ka3eS0ydI0nFQfnEXDrDYl9MMH98QGC/IjGnfTQXVcrg66AAraDzu2kxZqznwBDvysKDYr7GSJb/vjnPC7SAYy00pUvNxqYK+WTDJL8xegSvIhaSIKSHcBguaXnJx5OtHhZ2Bt3WWqwdsKv5M+50n+k7ifwX3PY+9vvOcMvCr8F+GcpOvPaCkkfo11hzhHq9S+hxzpw/b016RtltzRhR3+PT+Mnzdcz06/+BrFXnF6fpmwTLjG/xSlnfeq8F+Fc5Kuv6KlEPWcP16x+t9ETpvtLPlj0jyzQn5hhwu78RAMBANXMBAdfgXLYSMYuIuB6PC7mA+7wcAVDESHX8Fy2AgG7mIgOvwu5sNuMHAFA9HhV7AcNoKBuxiIDr+L+bAbDFzBQHT4FSyHjWDgLgaiw+9iPuwGA1cwEB1+BcthIxi4i4Ho8LuYD7vBwBUMRIdfwXLYCAbuYuA/ozxbzJ6dZBgAAAAASUVORK5CYII=;" vertex="1" parent="6fCxlEUbeOfGK09BT6zv-1">
          <mxGeometry x="39" y="40" width="331" height="34" as="geometry" />
        </mxCell>
      </root>
    </mxGraphModel>
  </diagram>
  <diagram name="4" id="Hq83RAR10yyQAt7kBh5_">
    <mxGraphModel dx="1434" dy="836" grid="1" gridSize="10" guides="1" tooltips="1" connect="1" arrows="1" fold="1" page="1" pageScale="1" pageWidth="827" pageHeight="1169" math="0" shadow="0">
      <root>
        <mxCell id="z5YpnzVOwXKJa6lzoZ66-0" />
        <mxCell id="z5YpnzVOwXKJa6lzoZ66-1" parent="z5YpnzVOwXKJa6lzoZ66-0" />
        <mxCell id="z5YpnzVOwXKJa6lzoZ66-2" value="25" style="ellipse;whiteSpace=wrap;html=1;aspect=fixed;" vertex="1" parent="z5YpnzVOwXKJa6lzoZ66-1">
          <mxGeometry x="560" y="280" width="50" height="50" as="geometry" />
        </mxCell>
        <mxCell id="z5YpnzVOwXKJa6lzoZ66-3" value="9" style="ellipse;whiteSpace=wrap;html=1;aspect=fixed;" vertex="1" parent="z5YpnzVOwXKJa6lzoZ66-1">
          <mxGeometry x="690" y="280" width="50" height="50" as="geometry" />
        </mxCell>
        <mxCell id="z5YpnzVOwXKJa6lzoZ66-4" value="103" style="ellipse;whiteSpace=wrap;html=1;aspect=fixed;" vertex="1" parent="z5YpnzVOwXKJa6lzoZ66-1">
          <mxGeometry x="20" y="380" width="50" height="50" as="geometry" />
        </mxCell>
        <mxCell id="z5YpnzVOwXKJa6lzoZ66-5" value="111" style="ellipse;whiteSpace=wrap;html=1;aspect=fixed;fillColor=#1ba1e2;fontColor=#ffffff;strokeColor=#006EAF;" vertex="1" parent="z5YpnzVOwXKJa6lzoZ66-1">
          <mxGeometry x="140" y="380" width="50" height="50" as="geometry" />
        </mxCell>
        <mxCell id="z5YpnzVOwXKJa6lzoZ66-6" value="59" style="ellipse;whiteSpace=wrap;html=1;aspect=fixed;" vertex="1" parent="z5YpnzVOwXKJa6lzoZ66-1">
          <mxGeometry x="260" y="380" width="50" height="50" as="geometry" />
        </mxCell>
        <mxCell id="z5YpnzVOwXKJa6lzoZ66-7" value="83" style="ellipse;whiteSpace=wrap;html=1;aspect=fixed;" vertex="1" parent="z5YpnzVOwXKJa6lzoZ66-1">
          <mxGeometry x="370" y="380" width="50" height="50" as="geometry" />
        </mxCell>
        <mxCell id="z5YpnzVOwXKJa6lzoZ66-8" value="53" style="ellipse;whiteSpace=wrap;html=1;aspect=fixed;" vertex="1" parent="z5YpnzVOwXKJa6lzoZ66-1">
          <mxGeometry x="310" y="280" width="50" height="50" as="geometry" />
        </mxCell>
        <mxCell id="z5YpnzVOwXKJa6lzoZ66-9" value="37" style="ellipse;whiteSpace=wrap;html=1;aspect=fixed;direction=south;fillColor=#1ba1e2;fontColor=#ffffff;strokeColor=#006EAF;" vertex="1" parent="z5YpnzVOwXKJa6lzoZ66-1">
          <mxGeometry x="80" y="280" width="50" height="50" as="geometry" />
        </mxCell>
        <mxCell id="z5YpnzVOwXKJa6lzoZ66-10" value="66" style="ellipse;whiteSpace=wrap;html=1;aspect=fixed;" vertex="1" parent="z5YpnzVOwXKJa6lzoZ66-1">
          <mxGeometry x="620" y="170" width="50" height="50" as="geometry" />
        </mxCell>
        <mxCell id="z5YpnzVOwXKJa6lzoZ66-11" value="133" style="ellipse;whiteSpace=wrap;html=1;aspect=fixed;" vertex="1" parent="z5YpnzVOwXKJa6lzoZ66-1">
          <mxGeometry x="170" y="170" width="50" height="50" as="geometry" />
        </mxCell>
        <mxCell id="z5YpnzVOwXKJa6lzoZ66-12" value="123" style="ellipse;whiteSpace=wrap;html=1;aspect=fixed;" vertex="1" parent="z5YpnzVOwXKJa6lzoZ66-1">
          <mxGeometry x="370" y="80" width="50" height="50" as="geometry" />
        </mxCell>
        <mxCell id="z5YpnzVOwXKJa6lzoZ66-13" value="42" style="ellipse;whiteSpace=wrap;html=1;aspect=fixed;" vertex="1" parent="z5YpnzVOwXKJa6lzoZ66-1">
          <mxGeometry x="520" y="380" width="50" height="50" as="geometry" />
        </mxCell>
        <mxCell id="z5YpnzVOwXKJa6lzoZ66-14" value="" style="endArrow=none;html=1;rounded=0;entryX=0;entryY=0.5;entryDx=0;entryDy=0;exitX=0.5;exitY=0;exitDx=0;exitDy=0;" edge="1" parent="z5YpnzVOwXKJa6lzoZ66-1" source="z5YpnzVOwXKJa6lzoZ66-11" target="z5YpnzVOwXKJa6lzoZ66-12">
          <mxGeometry width="50" height="50" relative="1" as="geometry">
            <mxPoint x="350" y="250" as="sourcePoint" />
            <mxPoint x="400" y="200" as="targetPoint" />
          </mxGeometry>
        </mxCell>
        <mxCell id="z5YpnzVOwXKJa6lzoZ66-15" value="" style="endArrow=none;html=1;rounded=0;entryX=0.5;entryY=0;entryDx=0;entryDy=0;exitX=1;exitY=0.5;exitDx=0;exitDy=0;" edge="1" parent="z5YpnzVOwXKJa6lzoZ66-1" source="z5YpnzVOwXKJa6lzoZ66-12" target="z5YpnzVOwXKJa6lzoZ66-10">
          <mxGeometry width="50" height="50" relative="1" as="geometry">
            <mxPoint x="234" y="195" as="sourcePoint" />
            <mxPoint x="405" y="140" as="targetPoint" />
          </mxGeometry>
        </mxCell>
        <mxCell id="z5YpnzVOwXKJa6lzoZ66-16" value="" style="endArrow=none;html=1;rounded=0;entryX=0;entryY=0.5;entryDx=0;entryDy=0;exitX=0;exitY=1;exitDx=0;exitDy=0;" edge="1" parent="z5YpnzVOwXKJa6lzoZ66-1" source="z5YpnzVOwXKJa6lzoZ66-11" target="z5YpnzVOwXKJa6lzoZ66-9">
          <mxGeometry width="50" height="50" relative="1" as="geometry">
            <mxPoint x="244" y="205" as="sourcePoint" />
            <mxPoint x="415" y="150" as="targetPoint" />
          </mxGeometry>
        </mxCell>
        <mxCell id="z5YpnzVOwXKJa6lzoZ66-17" value="" style="endArrow=none;html=1;rounded=0;entryX=0.5;entryY=0;entryDx=0;entryDy=0;exitX=1;exitY=1;exitDx=0;exitDy=0;" edge="1" parent="z5YpnzVOwXKJa6lzoZ66-1" source="z5YpnzVOwXKJa6lzoZ66-11" target="z5YpnzVOwXKJa6lzoZ66-8">
          <mxGeometry width="50" height="50" relative="1" as="geometry">
            <mxPoint x="254" y="215" as="sourcePoint" />
            <mxPoint x="425" y="160" as="targetPoint" />
          </mxGeometry>
        </mxCell>
        <mxCell id="z5YpnzVOwXKJa6lzoZ66-18" value="" style="endArrow=none;html=1;rounded=0;entryX=0.5;entryY=0;entryDx=0;entryDy=0;exitX=1;exitY=1;exitDx=0;exitDy=0;" edge="1" parent="z5YpnzVOwXKJa6lzoZ66-1" source="z5YpnzVOwXKJa6lzoZ66-8" target="z5YpnzVOwXKJa6lzoZ66-7">
          <mxGeometry width="50" height="50" relative="1" as="geometry">
            <mxPoint x="300" y="330" as="sourcePoint" />
            <mxPoint x="435" y="170" as="targetPoint" />
          </mxGeometry>
        </mxCell>
        <mxCell id="z5YpnzVOwXKJa6lzoZ66-19" value="" style="endArrow=none;html=1;rounded=0;entryX=0.5;entryY=0;entryDx=0;entryDy=0;exitX=0;exitY=1;exitDx=0;exitDy=0;" edge="1" parent="z5YpnzVOwXKJa6lzoZ66-1" source="z5YpnzVOwXKJa6lzoZ66-8" target="z5YpnzVOwXKJa6lzoZ66-6">
          <mxGeometry width="50" height="50" relative="1" as="geometry">
            <mxPoint x="274" y="235" as="sourcePoint" />
            <mxPoint x="445" y="180" as="targetPoint" />
          </mxGeometry>
        </mxCell>
        <mxCell id="z5YpnzVOwXKJa6lzoZ66-20" value="" style="endArrow=none;html=1;rounded=0;entryX=0.5;entryY=0;entryDx=0;entryDy=0;exitX=1;exitY=0;exitDx=0;exitDy=0;" edge="1" parent="z5YpnzVOwXKJa6lzoZ66-1" source="z5YpnzVOwXKJa6lzoZ66-9" target="z5YpnzVOwXKJa6lzoZ66-5">
          <mxGeometry width="50" height="50" relative="1" as="geometry">
            <mxPoint x="284" y="245" as="sourcePoint" />
            <mxPoint x="455" y="190" as="targetPoint" />
          </mxGeometry>
        </mxCell>
        <mxCell id="z5YpnzVOwXKJa6lzoZ66-21" value="" style="endArrow=none;html=1;rounded=0;entryX=0.5;entryY=0;entryDx=0;entryDy=0;exitX=1;exitY=1;exitDx=0;exitDy=0;" edge="1" parent="z5YpnzVOwXKJa6lzoZ66-1" source="z5YpnzVOwXKJa6lzoZ66-9" target="z5YpnzVOwXKJa6lzoZ66-4">
          <mxGeometry width="50" height="50" relative="1" as="geometry">
            <mxPoint x="294" y="255" as="sourcePoint" />
            <mxPoint x="465" y="200" as="targetPoint" />
          </mxGeometry>
        </mxCell>
        <mxCell id="z5YpnzVOwXKJa6lzoZ66-22" value="" style="endArrow=none;html=1;rounded=0;exitX=0;exitY=1;exitDx=0;exitDy=0;entryX=0.5;entryY=0;entryDx=0;entryDy=0;" edge="1" parent="z5YpnzVOwXKJa6lzoZ66-1" source="z5YpnzVOwXKJa6lzoZ66-10" target="z5YpnzVOwXKJa6lzoZ66-2">
          <mxGeometry width="50" height="50" relative="1" as="geometry">
            <mxPoint x="384" y="345" as="sourcePoint" />
            <mxPoint x="555" y="290" as="targetPoint" />
          </mxGeometry>
        </mxCell>
        <mxCell id="z5YpnzVOwXKJa6lzoZ66-23" value="" style="endArrow=none;html=1;rounded=0;entryX=1;entryY=1;entryDx=0;entryDy=0;exitX=0.5;exitY=0;exitDx=0;exitDy=0;" edge="1" parent="z5YpnzVOwXKJa6lzoZ66-1" source="z5YpnzVOwXKJa6lzoZ66-3" target="z5YpnzVOwXKJa6lzoZ66-10">
          <mxGeometry width="50" height="50" relative="1" as="geometry">
            <mxPoint x="394" y="355" as="sourcePoint" />
            <mxPoint x="565" y="300" as="targetPoint" />
          </mxGeometry>
        </mxCell>
        <mxCell id="z5YpnzVOwXKJa6lzoZ66-24" value="" style="endArrow=none;html=1;rounded=0;entryX=0;entryY=1;entryDx=0;entryDy=0;exitX=0.5;exitY=0;exitDx=0;exitDy=0;" edge="1" parent="z5YpnzVOwXKJa6lzoZ66-1" source="z5YpnzVOwXKJa6lzoZ66-13" target="z5YpnzVOwXKJa6lzoZ66-2">
          <mxGeometry width="50" height="50" relative="1" as="geometry">
            <mxPoint x="404" y="365" as="sourcePoint" />
            <mxPoint x="575" y="310" as="targetPoint" />
          </mxGeometry>
        </mxCell>
        <mxCell id="z5YpnzVOwXKJa6lzoZ66-25" value="" style="shape=image;verticalLabelPosition=bottom;labelBackgroundColor=default;verticalAlign=top;aspect=fixed;imageAspect=0;image=data:image/png,iVBORw0KGgoAAAANSUhEUgAAAUsAAAAiCAIAAABZWWzvAAAGy0lEQVR4Ae1b0Y2kMAy9nqhmpxVEMSsqWYlKVpo6ODmJw7NjQ9idBWlkPo5gnGf72U7C3N2/Na5gIBh4Xwb+vW9oEVkwEAys0eFRBMHAOzMQHf7O2Y3YgoHo8KiBYOCdGYgOf+fsRmzBQHR41EAw8M4MRIe/c3YjtmAgOjxqIBh4Zwaiw985uxFbMHCiw5+fj2FakLJlGvgaxYuv0Zbj5Hb8NQ4f8xPlDg55ki+lj3NhvOkPw/hVXzznD3ZzkP5XFWNAswAkayzj8Ji/lbYpVDr0CO5JECd8AyKJnHRgmMNwHOlSk/f4FNnw7CZ5S4uHs8kbGk0Lrb6KKCVRVmYLBOQMAyRrk3fVkjK9lc2WxC4cdpBSvIGs6xas6jWecPre2+ElAOCRqOFg6C2PV3K6VKqQ7/uWq7mCrKuHkzwppJAP4JJtAfxZv+cH++b6b6NkaUmwLM2cFdmcJVVKaEGjezTmfIO8h0Y3nO/5gaxaLoAsxcKULtPQ1+QtLSThuYTJjNG4yCEX4IAadugDUWoyPC5jJRaltEUB4YdEOWSersniQ2K7OpBqhklDAsHj88OODqdMEBGjaCdM25rWnlLNouu6szgMj3GCZWJdHRwZObaEHbzUrzpdjlVtGqQsDsM0Qr0mJ4fhMY114SAu0tFGCQUWPMju3bZ9J3yYKYZuOmih5I4VM8wHxSexxA1g6ju0pNV5m0gxZh8EvpMaNHSsD0sATlRjuzMVaeQPr0RqPj/aZMpAhM880bov0zBOak3fSCMOD1ccC1bJujp8TidbUXMKxmkYWb5qTn1c5nQa3FH2Xu25lOF/5Vj1kAbPzzl9iYiyWD7TZ4W0YgoFFj5QQfBW7xSHFz7CiDH48/x8PD74o+aoXXVVAY7AhweTFu2wGVcHONhZ8fxV5dpQfaEGXyOQwGzTnlnHlGE4d6j55bGHzOOazGB5sTCZSQq9odmebtKODmflHdeNV+S6+OBhGPduh+TgkHI6WYjv/xabymhc6M98lYzS9GlhkO1zowVoJKLDy1uzWE1hA0eC6l67ZjvhmzBViOmgMcOmeGGXqBO2gdgSaa7ogU2vGQlaMr2bDgWIdkmZoHu/8z19YXQz14xE4ERpKQMkJ507DlxCfYGZLCYJHPsbN0DwnD+SD+QMMlNVekOrE7zBCzo81YHpZT69H5182DUiiGuRZfXuBHzYRbl5KixnNyejVhhmrpp0BpYnphumsAEVhcLuNVqW0UYpC3bTcbxNbcsNfTyrXc4xSWLhIQWFnwZEhVEh5Cqq7cCnV1rfbY8DIMAhQso1Ld2/O2R8h8yOvNNZIK9udghE5ilmdgL+bYfv1hPZBTZ33KBXux3u4TgsV1O6toq+VYJ4YKvz24Eo5fLaTKop1Hjaf48uT67wetJR1zU113jU7BkqLBK06FTadZx/TDU6nzGbu8Tp5KRBSZVmrCyUi4PvcInlrAg6p3JSOrKJLUcx8Mr2Xtcz/3u0IZQiaXZdHV4zS8dbn2VZeDiikjq+ndQuxLDqZ4yubsyeKgeS0JxuCmu0ZcD+sJzp8uSsZ9xpSpMO5S3p9BexzIhhEkTSkGzFup5qQKkGaGW4qy8ttpM3iUGmscwd50tZrGQacgOf/aGg9MW7C/lw8KXAML33n+/hVIt1KUJzmDYas/eoY4330gk4qJbIUkughkb99K2V/RFZd2PRYPo4Wt6bxWEKG0ARAoSZXOXQUN4gZIEXAsoFFTYOFGuqtu7lACYSMtKLr/R4pxOSg75+H705yobkQiyRUzZzcpjHNjXlQMo1j2TqsfVJYoNSZjnL4m/LbPUfSH/a4Sn9aiWq1ZAIzS+hvUUwhqtIU35t4/BfRyUDlZ29Q76Dk5Ka3eS0ydI0nFQfnEXDrDYl9MMH98QGC/IjGnfTQXVcrg66AAraDzu2kxZqznwBDvysKDYr7GSJb/vjnPC7SAYy00pUvNxqYK+WTDJL8xegSvIhaSIKSHcBguaXnJx5OtHhZ2Bt3WWqwdsKv5M+50n+k7ifwX3PY+9vvOcMvCr8F+GcpOvPaCkkfo11hzhHq9S+hxzpw/b016RtltzRhR3+PT+Mnzdcz06/+BrFXnF6fpmwTLjG/xSlnfeq8F+Fc5Kuv6KlEPWcP16x+t9ETpvtLPlj0jyzQn5hhwu78RAMBANXMBAdfgXLYSMYuIuB6PC7mA+7wcAVDESHX8Fy2AgG7mIgOvwu5sNuMHAFA9HhV7AcNoKBuxiIDr+L+bAbDFzBQHT4FSyHjWDgLgaiw+9iPuwGA1cwEB1+BcthIxi4i4Ho8LuYD7vBwBUMRIdfwXLYCAbuYuA/ozxbzJ6dZBgAAAAASUVORK5CYII=;" vertex="1" parent="z5YpnzVOwXKJa6lzoZ66-1">
          <mxGeometry x="39" y="40" width="331" height="34" as="geometry" />
        </mxCell>
      </root>
    </mxGraphModel>
  </diagram>
  <diagram name="5" id="jbH4QfN5mSaZWwnbKqm2">
    <mxGraphModel dx="1434" dy="836" grid="1" gridSize="10" guides="1" tooltips="1" connect="1" arrows="1" fold="1" page="1" pageScale="1" pageWidth="827" pageHeight="1169" math="0" shadow="0">
      <root>
        <mxCell id="F70LsA2JX-mBqnbz3w3q-0" />
        <mxCell id="F70LsA2JX-mBqnbz3w3q-1" parent="F70LsA2JX-mBqnbz3w3q-0" />
        <mxCell id="F70LsA2JX-mBqnbz3w3q-2" value="25" style="ellipse;whiteSpace=wrap;html=1;aspect=fixed;" vertex="1" parent="F70LsA2JX-mBqnbz3w3q-1">
          <mxGeometry x="560" y="280" width="50" height="50" as="geometry" />
        </mxCell>
        <mxCell id="F70LsA2JX-mBqnbz3w3q-3" value="66" style="ellipse;whiteSpace=wrap;html=1;aspect=fixed;fillColor=#1ba1e2;fontColor=#ffffff;strokeColor=#006EAF;" vertex="1" parent="F70LsA2JX-mBqnbz3w3q-1">
          <mxGeometry x="690" y="280" width="50" height="50" as="geometry" />
        </mxCell>
        <mxCell id="F70LsA2JX-mBqnbz3w3q-4" value="103" style="ellipse;whiteSpace=wrap;html=1;aspect=fixed;" vertex="1" parent="F70LsA2JX-mBqnbz3w3q-1">
          <mxGeometry x="20" y="380" width="50" height="50" as="geometry" />
        </mxCell>
        <mxCell id="F70LsA2JX-mBqnbz3w3q-5" value="111" style="ellipse;whiteSpace=wrap;html=1;aspect=fixed;" vertex="1" parent="F70LsA2JX-mBqnbz3w3q-1">
          <mxGeometry x="140" y="380" width="50" height="50" as="geometry" />
        </mxCell>
        <mxCell id="F70LsA2JX-mBqnbz3w3q-6" value="59" style="ellipse;whiteSpace=wrap;html=1;aspect=fixed;" vertex="1" parent="F70LsA2JX-mBqnbz3w3q-1">
          <mxGeometry x="260" y="380" width="50" height="50" as="geometry" />
        </mxCell>
        <mxCell id="F70LsA2JX-mBqnbz3w3q-7" value="83" style="ellipse;whiteSpace=wrap;html=1;aspect=fixed;" vertex="1" parent="F70LsA2JX-mBqnbz3w3q-1">
          <mxGeometry x="370" y="380" width="50" height="50" as="geometry" />
        </mxCell>
        <mxCell id="F70LsA2JX-mBqnbz3w3q-8" value="53" style="ellipse;whiteSpace=wrap;html=1;aspect=fixed;" vertex="1" parent="F70LsA2JX-mBqnbz3w3q-1">
          <mxGeometry x="310" y="280" width="50" height="50" as="geometry" />
        </mxCell>
        <mxCell id="F70LsA2JX-mBqnbz3w3q-9" value="37" style="ellipse;whiteSpace=wrap;html=1;aspect=fixed;direction=south;" vertex="1" parent="F70LsA2JX-mBqnbz3w3q-1">
          <mxGeometry x="80" y="280" width="50" height="50" as="geometry" />
        </mxCell>
        <mxCell id="F70LsA2JX-mBqnbz3w3q-10" value="9" style="ellipse;whiteSpace=wrap;html=1;aspect=fixed;fillColor=#1ba1e2;fontColor=#ffffff;strokeColor=#006EAF;" vertex="1" parent="F70LsA2JX-mBqnbz3w3q-1">
          <mxGeometry x="620" y="170" width="50" height="50" as="geometry" />
        </mxCell>
        <mxCell id="F70LsA2JX-mBqnbz3w3q-11" value="133" style="ellipse;whiteSpace=wrap;html=1;aspect=fixed;" vertex="1" parent="F70LsA2JX-mBqnbz3w3q-1">
          <mxGeometry x="179.5" y="170" width="50" height="50" as="geometry" />
        </mxCell>
        <mxCell id="F70LsA2JX-mBqnbz3w3q-12" value="123" style="ellipse;whiteSpace=wrap;html=1;aspect=fixed;" vertex="1" parent="F70LsA2JX-mBqnbz3w3q-1">
          <mxGeometry x="370" y="80" width="50" height="50" as="geometry" />
        </mxCell>
        <mxCell id="F70LsA2JX-mBqnbz3w3q-13" value="42" style="ellipse;whiteSpace=wrap;html=1;aspect=fixed;" vertex="1" parent="F70LsA2JX-mBqnbz3w3q-1">
          <mxGeometry x="520" y="380" width="50" height="50" as="geometry" />
        </mxCell>
        <mxCell id="F70LsA2JX-mBqnbz3w3q-14" value="" style="endArrow=none;html=1;rounded=0;entryX=0;entryY=0.5;entryDx=0;entryDy=0;exitX=0.5;exitY=0;exitDx=0;exitDy=0;" edge="1" parent="F70LsA2JX-mBqnbz3w3q-1" source="F70LsA2JX-mBqnbz3w3q-11" target="F70LsA2JX-mBqnbz3w3q-12">
          <mxGeometry width="50" height="50" relative="1" as="geometry">
            <mxPoint x="350" y="250" as="sourcePoint" />
            <mxPoint x="400" y="200" as="targetPoint" />
          </mxGeometry>
        </mxCell>
        <mxCell id="F70LsA2JX-mBqnbz3w3q-15" value="" style="endArrow=none;html=1;rounded=0;entryX=0.5;entryY=0;entryDx=0;entryDy=0;exitX=1;exitY=0.5;exitDx=0;exitDy=0;" edge="1" parent="F70LsA2JX-mBqnbz3w3q-1" source="F70LsA2JX-mBqnbz3w3q-12" target="F70LsA2JX-mBqnbz3w3q-10">
          <mxGeometry width="50" height="50" relative="1" as="geometry">
            <mxPoint x="234" y="195" as="sourcePoint" />
            <mxPoint x="405" y="140" as="targetPoint" />
          </mxGeometry>
        </mxCell>
        <mxCell id="F70LsA2JX-mBqnbz3w3q-16" value="" style="endArrow=none;html=1;rounded=0;entryX=0;entryY=0.5;entryDx=0;entryDy=0;exitX=0;exitY=1;exitDx=0;exitDy=0;" edge="1" parent="F70LsA2JX-mBqnbz3w3q-1" source="F70LsA2JX-mBqnbz3w3q-11" target="F70LsA2JX-mBqnbz3w3q-9">
          <mxGeometry width="50" height="50" relative="1" as="geometry">
            <mxPoint x="244" y="205" as="sourcePoint" />
            <mxPoint x="415" y="150" as="targetPoint" />
          </mxGeometry>
        </mxCell>
        <mxCell id="F70LsA2JX-mBqnbz3w3q-17" value="" style="endArrow=none;html=1;rounded=0;entryX=0.5;entryY=0;entryDx=0;entryDy=0;exitX=1;exitY=1;exitDx=0;exitDy=0;" edge="1" parent="F70LsA2JX-mBqnbz3w3q-1" source="F70LsA2JX-mBqnbz3w3q-11" target="F70LsA2JX-mBqnbz3w3q-8">
          <mxGeometry width="50" height="50" relative="1" as="geometry">
            <mxPoint x="254" y="215" as="sourcePoint" />
            <mxPoint x="425" y="160" as="targetPoint" />
          </mxGeometry>
        </mxCell>
        <mxCell id="F70LsA2JX-mBqnbz3w3q-18" value="" style="endArrow=none;html=1;rounded=0;entryX=0.5;entryY=0;entryDx=0;entryDy=0;exitX=1;exitY=1;exitDx=0;exitDy=0;" edge="1" parent="F70LsA2JX-mBqnbz3w3q-1" source="F70LsA2JX-mBqnbz3w3q-8" target="F70LsA2JX-mBqnbz3w3q-7">
          <mxGeometry width="50" height="50" relative="1" as="geometry">
            <mxPoint x="300" y="330" as="sourcePoint" />
            <mxPoint x="435" y="170" as="targetPoint" />
          </mxGeometry>
        </mxCell>
        <mxCell id="F70LsA2JX-mBqnbz3w3q-19" value="" style="endArrow=none;html=1;rounded=0;entryX=0.5;entryY=0;entryDx=0;entryDy=0;exitX=0;exitY=1;exitDx=0;exitDy=0;" edge="1" parent="F70LsA2JX-mBqnbz3w3q-1" source="F70LsA2JX-mBqnbz3w3q-8" target="F70LsA2JX-mBqnbz3w3q-6">
          <mxGeometry width="50" height="50" relative="1" as="geometry">
            <mxPoint x="274" y="235" as="sourcePoint" />
            <mxPoint x="445" y="180" as="targetPoint" />
          </mxGeometry>
        </mxCell>
        <mxCell id="F70LsA2JX-mBqnbz3w3q-20" value="" style="endArrow=none;html=1;rounded=0;entryX=0.5;entryY=0;entryDx=0;entryDy=0;exitX=1;exitY=0;exitDx=0;exitDy=0;" edge="1" parent="F70LsA2JX-mBqnbz3w3q-1" source="F70LsA2JX-mBqnbz3w3q-9" target="F70LsA2JX-mBqnbz3w3q-5">
          <mxGeometry width="50" height="50" relative="1" as="geometry">
            <mxPoint x="284" y="245" as="sourcePoint" />
            <mxPoint x="455" y="190" as="targetPoint" />
          </mxGeometry>
        </mxCell>
        <mxCell id="F70LsA2JX-mBqnbz3w3q-21" value="" style="endArrow=none;html=1;rounded=0;entryX=0.5;entryY=0;entryDx=0;entryDy=0;exitX=1;exitY=1;exitDx=0;exitDy=0;" edge="1" parent="F70LsA2JX-mBqnbz3w3q-1" source="F70LsA2JX-mBqnbz3w3q-9" target="F70LsA2JX-mBqnbz3w3q-4">
          <mxGeometry width="50" height="50" relative="1" as="geometry">
            <mxPoint x="294" y="255" as="sourcePoint" />
            <mxPoint x="465" y="200" as="targetPoint" />
          </mxGeometry>
        </mxCell>
        <mxCell id="F70LsA2JX-mBqnbz3w3q-22" value="" style="endArrow=none;html=1;rounded=0;exitX=0;exitY=1;exitDx=0;exitDy=0;entryX=0.5;entryY=0;entryDx=0;entryDy=0;" edge="1" parent="F70LsA2JX-mBqnbz3w3q-1" source="F70LsA2JX-mBqnbz3w3q-10" target="F70LsA2JX-mBqnbz3w3q-2">
          <mxGeometry width="50" height="50" relative="1" as="geometry">
            <mxPoint x="384" y="345" as="sourcePoint" />
            <mxPoint x="555" y="290" as="targetPoint" />
          </mxGeometry>
        </mxCell>
        <mxCell id="F70LsA2JX-mBqnbz3w3q-23" value="" style="endArrow=none;html=1;rounded=0;entryX=1;entryY=1;entryDx=0;entryDy=0;exitX=0.5;exitY=0;exitDx=0;exitDy=0;" edge="1" parent="F70LsA2JX-mBqnbz3w3q-1" source="F70LsA2JX-mBqnbz3w3q-3" target="F70LsA2JX-mBqnbz3w3q-10">
          <mxGeometry width="50" height="50" relative="1" as="geometry">
            <mxPoint x="394" y="355" as="sourcePoint" />
            <mxPoint x="565" y="300" as="targetPoint" />
          </mxGeometry>
        </mxCell>
        <mxCell id="F70LsA2JX-mBqnbz3w3q-24" value="" style="endArrow=none;html=1;rounded=0;entryX=0;entryY=1;entryDx=0;entryDy=0;exitX=0.5;exitY=0;exitDx=0;exitDy=0;" edge="1" parent="F70LsA2JX-mBqnbz3w3q-1" source="F70LsA2JX-mBqnbz3w3q-13" target="F70LsA2JX-mBqnbz3w3q-2">
          <mxGeometry width="50" height="50" relative="1" as="geometry">
            <mxPoint x="404" y="365" as="sourcePoint" />
            <mxPoint x="575" y="310" as="targetPoint" />
          </mxGeometry>
        </mxCell>
        <mxCell id="F70LsA2JX-mBqnbz3w3q-25" value="" style="shape=image;verticalLabelPosition=bottom;labelBackgroundColor=default;verticalAlign=top;aspect=fixed;imageAspect=0;image=data:image/png,iVBORw0KGgoAAAANSUhEUgAAAUsAAAAiCAIAAABZWWzvAAAGy0lEQVR4Ae1b0Y2kMAy9nqhmpxVEMSsqWYlKVpo6ODmJw7NjQ9idBWlkPo5gnGf72U7C3N2/Na5gIBh4Xwb+vW9oEVkwEAys0eFRBMHAOzMQHf7O2Y3YgoHo8KiBYOCdGYgOf+fsRmzBQHR41EAw8M4MRIe/c3YjtmAgOjxqIBh4Zwaiw985uxFbMHCiw5+fj2FakLJlGvgaxYuv0Zbj5Hb8NQ4f8xPlDg55ki+lj3NhvOkPw/hVXzznD3ZzkP5XFWNAswAkayzj8Ji/lbYpVDr0CO5JECd8AyKJnHRgmMNwHOlSk/f4FNnw7CZ5S4uHs8kbGk0Lrb6KKCVRVmYLBOQMAyRrk3fVkjK9lc2WxC4cdpBSvIGs6xas6jWecPre2+ElAOCRqOFg6C2PV3K6VKqQ7/uWq7mCrKuHkzwppJAP4JJtAfxZv+cH++b6b6NkaUmwLM2cFdmcJVVKaEGjezTmfIO8h0Y3nO/5gaxaLoAsxcKULtPQ1+QtLSThuYTJjNG4yCEX4IAadugDUWoyPC5jJRaltEUB4YdEOWSersniQ2K7OpBqhklDAsHj88OODqdMEBGjaCdM25rWnlLNouu6szgMj3GCZWJdHRwZObaEHbzUrzpdjlVtGqQsDsM0Qr0mJ4fhMY114SAu0tFGCQUWPMju3bZ9J3yYKYZuOmih5I4VM8wHxSexxA1g6ju0pNV5m0gxZh8EvpMaNHSsD0sATlRjuzMVaeQPr0RqPj/aZMpAhM880bov0zBOak3fSCMOD1ccC1bJujp8TidbUXMKxmkYWb5qTn1c5nQa3FH2Xu25lOF/5Vj1kAbPzzl9iYiyWD7TZ4W0YgoFFj5QQfBW7xSHFz7CiDH48/x8PD74o+aoXXVVAY7AhweTFu2wGVcHONhZ8fxV5dpQfaEGXyOQwGzTnlnHlGE4d6j55bGHzOOazGB5sTCZSQq9odmebtKODmflHdeNV+S6+OBhGPduh+TgkHI6WYjv/xabymhc6M98lYzS9GlhkO1zowVoJKLDy1uzWE1hA0eC6l67ZjvhmzBViOmgMcOmeGGXqBO2gdgSaa7ogU2vGQlaMr2bDgWIdkmZoHu/8z19YXQz14xE4ERpKQMkJ507DlxCfYGZLCYJHPsbN0DwnD+SD+QMMlNVekOrE7zBCzo81YHpZT69H5182DUiiGuRZfXuBHzYRbl5KixnNyejVhhmrpp0BpYnphumsAEVhcLuNVqW0UYpC3bTcbxNbcsNfTyrXc4xSWLhIQWFnwZEhVEh5Cqq7cCnV1rfbY8DIMAhQso1Ld2/O2R8h8yOvNNZIK9udghE5ilmdgL+bYfv1hPZBTZ33KBXux3u4TgsV1O6toq+VYJ4YKvz24Eo5fLaTKop1Hjaf48uT67wetJR1zU113jU7BkqLBK06FTadZx/TDU6nzGbu8Tp5KRBSZVmrCyUi4PvcInlrAg6p3JSOrKJLUcx8Mr2Xtcz/3u0IZQiaXZdHV4zS8dbn2VZeDiikjq+ndQuxLDqZ4yubsyeKgeS0JxuCmu0ZcD+sJzp8uSsZ9xpSpMO5S3p9BexzIhhEkTSkGzFup5qQKkGaGW4qy8ttpM3iUGmscwd50tZrGQacgOf/aGg9MW7C/lw8KXAML33n+/hVIt1KUJzmDYas/eoY4330gk4qJbIUkughkb99K2V/RFZd2PRYPo4Wt6bxWEKG0ARAoSZXOXQUN4gZIEXAsoFFTYOFGuqtu7lACYSMtKLr/R4pxOSg75+H705yobkQiyRUzZzcpjHNjXlQMo1j2TqsfVJYoNSZjnL4m/LbPUfSH/a4Sn9aiWq1ZAIzS+hvUUwhqtIU35t4/BfRyUDlZ29Q76Dk5Ka3eS0ydI0nFQfnEXDrDYl9MMH98QGC/IjGnfTQXVcrg66AAraDzu2kxZqznwBDvysKDYr7GSJb/vjnPC7SAYy00pUvNxqYK+WTDJL8xegSvIhaSIKSHcBguaXnJx5OtHhZ2Bt3WWqwdsKv5M+50n+k7ifwX3PY+9vvOcMvCr8F+GcpOvPaCkkfo11hzhHq9S+hxzpw/b016RtltzRhR3+PT+Mnzdcz06/+BrFXnF6fpmwTLjG/xSlnfeq8F+Fc5Kuv6KlEPWcP16x+t9ETpvtLPlj0jyzQn5hhwu78RAMBANXMBAdfgXLYSMYuIuB6PC7mA+7wcAVDESHX8Fy2AgG7mIgOvwu5sNuMHAFA9HhV7AcNoKBuxiIDr+L+bAbDFzBQHT4FSyHjWDgLgaiw+9iPuwGA1cwEB1+BcthIxi4i4Ho8LuYD7vBwBUMRIdfwXLYCAbuYuA/ozxbzJ6dZBgAAAAASUVORK5CYII=;" vertex="1" parent="F70LsA2JX-mBqnbz3w3q-1">
          <mxGeometry x="39" y="40" width="331" height="34" as="geometry" />
        </mxCell>
      </root>
    </mxGraphModel>
  </diagram>
  <diagram name="6" id="0bUogcUheb6OnUTyATQ0">
    <mxGraphModel dx="1434" dy="836" grid="1" gridSize="10" guides="1" tooltips="1" connect="1" arrows="1" fold="1" page="1" pageScale="1" pageWidth="827" pageHeight="1169" math="0" shadow="0">
      <root>
        <mxCell id="EegwAHwZHiU61Y2vCCrE-0" />
        <mxCell id="EegwAHwZHiU61Y2vCCrE-1" parent="EegwAHwZHiU61Y2vCCrE-0" />
        <mxCell id="EegwAHwZHiU61Y2vCCrE-2" value="25" style="ellipse;whiteSpace=wrap;html=1;aspect=fixed;" vertex="1" parent="EegwAHwZHiU61Y2vCCrE-1">
          <mxGeometry x="560" y="280" width="50" height="50" as="geometry" />
        </mxCell>
        <mxCell id="EegwAHwZHiU61Y2vCCrE-3" value="66" style="ellipse;whiteSpace=wrap;html=1;aspect=fixed;" vertex="1" parent="EegwAHwZHiU61Y2vCCrE-1">
          <mxGeometry x="690" y="280" width="50" height="50" as="geometry" />
        </mxCell>
        <mxCell id="EegwAHwZHiU61Y2vCCrE-4" value="133" style="ellipse;whiteSpace=wrap;html=1;aspect=fixed;fillColor=#1ba1e2;fontColor=#ffffff;strokeColor=#006EAF;" vertex="1" parent="EegwAHwZHiU61Y2vCCrE-1">
          <mxGeometry x="20" y="380" width="50" height="50" as="geometry" />
        </mxCell>
        <mxCell id="EegwAHwZHiU61Y2vCCrE-5" value="111" style="ellipse;whiteSpace=wrap;html=1;aspect=fixed;" vertex="1" parent="EegwAHwZHiU61Y2vCCrE-1">
          <mxGeometry x="140" y="380" width="50" height="50" as="geometry" />
        </mxCell>
        <mxCell id="EegwAHwZHiU61Y2vCCrE-6" value="59" style="ellipse;whiteSpace=wrap;html=1;aspect=fixed;" vertex="1" parent="EegwAHwZHiU61Y2vCCrE-1">
          <mxGeometry x="260" y="380" width="50" height="50" as="geometry" />
        </mxCell>
        <mxCell id="EegwAHwZHiU61Y2vCCrE-7" value="83" style="ellipse;whiteSpace=wrap;html=1;aspect=fixed;" vertex="1" parent="EegwAHwZHiU61Y2vCCrE-1">
          <mxGeometry x="370" y="380" width="50" height="50" as="geometry" />
        </mxCell>
        <mxCell id="EegwAHwZHiU61Y2vCCrE-8" value="53" style="ellipse;whiteSpace=wrap;html=1;aspect=fixed;" vertex="1" parent="EegwAHwZHiU61Y2vCCrE-1">
          <mxGeometry x="310" y="280" width="50" height="50" as="geometry" />
        </mxCell>
        <mxCell id="EegwAHwZHiU61Y2vCCrE-9" value="103" style="ellipse;whiteSpace=wrap;html=1;aspect=fixed;direction=south;fillColor=#1ba1e2;fontColor=#ffffff;strokeColor=#006EAF;" vertex="1" parent="EegwAHwZHiU61Y2vCCrE-1">
          <mxGeometry x="80" y="280" width="50" height="50" as="geometry" />
        </mxCell>
        <mxCell id="EegwAHwZHiU61Y2vCCrE-10" value="9" style="ellipse;whiteSpace=wrap;html=1;aspect=fixed;" vertex="1" parent="EegwAHwZHiU61Y2vCCrE-1">
          <mxGeometry x="620" y="170" width="50" height="50" as="geometry" />
        </mxCell>
        <mxCell id="EegwAHwZHiU61Y2vCCrE-11" value="37" style="ellipse;whiteSpace=wrap;html=1;aspect=fixed;fillColor=#1ba1e2;fontColor=#ffffff;strokeColor=#006EAF;" vertex="1" parent="EegwAHwZHiU61Y2vCCrE-1">
          <mxGeometry x="179.5" y="170" width="50" height="50" as="geometry" />
        </mxCell>
        <mxCell id="EegwAHwZHiU61Y2vCCrE-12" value="123" style="ellipse;whiteSpace=wrap;html=1;aspect=fixed;" vertex="1" parent="EegwAHwZHiU61Y2vCCrE-1">
          <mxGeometry x="370" y="80" width="50" height="50" as="geometry" />
        </mxCell>
        <mxCell id="EegwAHwZHiU61Y2vCCrE-13" value="42" style="ellipse;whiteSpace=wrap;html=1;aspect=fixed;" vertex="1" parent="EegwAHwZHiU61Y2vCCrE-1">
          <mxGeometry x="520" y="380" width="50" height="50" as="geometry" />
        </mxCell>
        <mxCell id="EegwAHwZHiU61Y2vCCrE-14" value="" style="endArrow=none;html=1;rounded=0;entryX=0;entryY=0.5;entryDx=0;entryDy=0;exitX=0.5;exitY=0;exitDx=0;exitDy=0;" edge="1" parent="EegwAHwZHiU61Y2vCCrE-1" source="EegwAHwZHiU61Y2vCCrE-11" target="EegwAHwZHiU61Y2vCCrE-12">
          <mxGeometry width="50" height="50" relative="1" as="geometry">
            <mxPoint x="350" y="250" as="sourcePoint" />
            <mxPoint x="400" y="200" as="targetPoint" />
          </mxGeometry>
        </mxCell>
        <mxCell id="EegwAHwZHiU61Y2vCCrE-15" value="" style="endArrow=none;html=1;rounded=0;entryX=0.5;entryY=0;entryDx=0;entryDy=0;exitX=1;exitY=0.5;exitDx=0;exitDy=0;" edge="1" parent="EegwAHwZHiU61Y2vCCrE-1" source="EegwAHwZHiU61Y2vCCrE-12" target="EegwAHwZHiU61Y2vCCrE-10">
          <mxGeometry width="50" height="50" relative="1" as="geometry">
            <mxPoint x="234" y="195" as="sourcePoint" />
            <mxPoint x="405" y="140" as="targetPoint" />
          </mxGeometry>
        </mxCell>
        <mxCell id="EegwAHwZHiU61Y2vCCrE-16" value="" style="endArrow=none;html=1;rounded=0;entryX=0;entryY=0.5;entryDx=0;entryDy=0;exitX=0;exitY=1;exitDx=0;exitDy=0;" edge="1" parent="EegwAHwZHiU61Y2vCCrE-1" source="EegwAHwZHiU61Y2vCCrE-11" target="EegwAHwZHiU61Y2vCCrE-9">
          <mxGeometry width="50" height="50" relative="1" as="geometry">
            <mxPoint x="244" y="205" as="sourcePoint" />
            <mxPoint x="415" y="150" as="targetPoint" />
          </mxGeometry>
        </mxCell>
        <mxCell id="EegwAHwZHiU61Y2vCCrE-17" value="" style="endArrow=none;html=1;rounded=0;entryX=0.5;entryY=0;entryDx=0;entryDy=0;exitX=1;exitY=1;exitDx=0;exitDy=0;" edge="1" parent="EegwAHwZHiU61Y2vCCrE-1" source="EegwAHwZHiU61Y2vCCrE-11" target="EegwAHwZHiU61Y2vCCrE-8">
          <mxGeometry width="50" height="50" relative="1" as="geometry">
            <mxPoint x="254" y="215" as="sourcePoint" />
            <mxPoint x="425" y="160" as="targetPoint" />
          </mxGeometry>
        </mxCell>
        <mxCell id="EegwAHwZHiU61Y2vCCrE-18" value="" style="endArrow=none;html=1;rounded=0;entryX=0.5;entryY=0;entryDx=0;entryDy=0;exitX=1;exitY=1;exitDx=0;exitDy=0;" edge="1" parent="EegwAHwZHiU61Y2vCCrE-1" source="EegwAHwZHiU61Y2vCCrE-8" target="EegwAHwZHiU61Y2vCCrE-7">
          <mxGeometry width="50" height="50" relative="1" as="geometry">
            <mxPoint x="300" y="330" as="sourcePoint" />
            <mxPoint x="435" y="170" as="targetPoint" />
          </mxGeometry>
        </mxCell>
        <mxCell id="EegwAHwZHiU61Y2vCCrE-19" value="" style="endArrow=none;html=1;rounded=0;entryX=0.5;entryY=0;entryDx=0;entryDy=0;exitX=0;exitY=1;exitDx=0;exitDy=0;" edge="1" parent="EegwAHwZHiU61Y2vCCrE-1" source="EegwAHwZHiU61Y2vCCrE-8" target="EegwAHwZHiU61Y2vCCrE-6">
          <mxGeometry width="50" height="50" relative="1" as="geometry">
            <mxPoint x="274" y="235" as="sourcePoint" />
            <mxPoint x="445" y="180" as="targetPoint" />
          </mxGeometry>
        </mxCell>
        <mxCell id="EegwAHwZHiU61Y2vCCrE-20" value="" style="endArrow=none;html=1;rounded=0;entryX=0.5;entryY=0;entryDx=0;entryDy=0;exitX=1;exitY=0;exitDx=0;exitDy=0;" edge="1" parent="EegwAHwZHiU61Y2vCCrE-1" source="EegwAHwZHiU61Y2vCCrE-9" target="EegwAHwZHiU61Y2vCCrE-5">
          <mxGeometry width="50" height="50" relative="1" as="geometry">
            <mxPoint x="284" y="245" as="sourcePoint" />
            <mxPoint x="455" y="190" as="targetPoint" />
          </mxGeometry>
        </mxCell>
        <mxCell id="EegwAHwZHiU61Y2vCCrE-21" value="" style="endArrow=none;html=1;rounded=0;entryX=0.5;entryY=0;entryDx=0;entryDy=0;exitX=1;exitY=1;exitDx=0;exitDy=0;" edge="1" parent="EegwAHwZHiU61Y2vCCrE-1" source="EegwAHwZHiU61Y2vCCrE-9" target="EegwAHwZHiU61Y2vCCrE-4">
          <mxGeometry width="50" height="50" relative="1" as="geometry">
            <mxPoint x="294" y="255" as="sourcePoint" />
            <mxPoint x="465" y="200" as="targetPoint" />
          </mxGeometry>
        </mxCell>
        <mxCell id="EegwAHwZHiU61Y2vCCrE-22" value="" style="endArrow=none;html=1;rounded=0;exitX=0;exitY=1;exitDx=0;exitDy=0;entryX=0.5;entryY=0;entryDx=0;entryDy=0;" edge="1" parent="EegwAHwZHiU61Y2vCCrE-1" source="EegwAHwZHiU61Y2vCCrE-10" target="EegwAHwZHiU61Y2vCCrE-2">
          <mxGeometry width="50" height="50" relative="1" as="geometry">
            <mxPoint x="384" y="345" as="sourcePoint" />
            <mxPoint x="555" y="290" as="targetPoint" />
          </mxGeometry>
        </mxCell>
        <mxCell id="EegwAHwZHiU61Y2vCCrE-23" value="" style="endArrow=none;html=1;rounded=0;entryX=1;entryY=1;entryDx=0;entryDy=0;exitX=0.5;exitY=0;exitDx=0;exitDy=0;" edge="1" parent="EegwAHwZHiU61Y2vCCrE-1" source="EegwAHwZHiU61Y2vCCrE-3" target="EegwAHwZHiU61Y2vCCrE-10">
          <mxGeometry width="50" height="50" relative="1" as="geometry">
            <mxPoint x="394" y="355" as="sourcePoint" />
            <mxPoint x="565" y="300" as="targetPoint" />
          </mxGeometry>
        </mxCell>
        <mxCell id="EegwAHwZHiU61Y2vCCrE-24" value="" style="endArrow=none;html=1;rounded=0;entryX=0;entryY=1;entryDx=0;entryDy=0;exitX=0.5;exitY=0;exitDx=0;exitDy=0;" edge="1" parent="EegwAHwZHiU61Y2vCCrE-1" source="EegwAHwZHiU61Y2vCCrE-13" target="EegwAHwZHiU61Y2vCCrE-2">
          <mxGeometry width="50" height="50" relative="1" as="geometry">
            <mxPoint x="404" y="365" as="sourcePoint" />
            <mxPoint x="575" y="310" as="targetPoint" />
          </mxGeometry>
        </mxCell>
        <mxCell id="EegwAHwZHiU61Y2vCCrE-25" value="" style="shape=image;verticalLabelPosition=bottom;labelBackgroundColor=default;verticalAlign=top;aspect=fixed;imageAspect=0;image=data:image/png,iVBORw0KGgoAAAANSUhEUgAAAUsAAAAiCAIAAABZWWzvAAAGy0lEQVR4Ae1b0Y2kMAy9nqhmpxVEMSsqWYlKVpo6ODmJw7NjQ9idBWlkPo5gnGf72U7C3N2/Na5gIBh4Xwb+vW9oEVkwEAys0eFRBMHAOzMQHf7O2Y3YgoHo8KiBYOCdGYgOf+fsRmzBQHR41EAw8M4MRIe/c3YjtmAgOjxqIBh4Zwaiw985uxFbMHCiw5+fj2FakLJlGvgaxYuv0Zbj5Hb8NQ4f8xPlDg55ki+lj3NhvOkPw/hVXzznD3ZzkP5XFWNAswAkayzj8Ji/lbYpVDr0CO5JECd8AyKJnHRgmMNwHOlSk/f4FNnw7CZ5S4uHs8kbGk0Lrb6KKCVRVmYLBOQMAyRrk3fVkjK9lc2WxC4cdpBSvIGs6xas6jWecPre2+ElAOCRqOFg6C2PV3K6VKqQ7/uWq7mCrKuHkzwppJAP4JJtAfxZv+cH++b6b6NkaUmwLM2cFdmcJVVKaEGjezTmfIO8h0Y3nO/5gaxaLoAsxcKULtPQ1+QtLSThuYTJjNG4yCEX4IAadugDUWoyPC5jJRaltEUB4YdEOWSersniQ2K7OpBqhklDAsHj88OODqdMEBGjaCdM25rWnlLNouu6szgMj3GCZWJdHRwZObaEHbzUrzpdjlVtGqQsDsM0Qr0mJ4fhMY114SAu0tFGCQUWPMju3bZ9J3yYKYZuOmih5I4VM8wHxSexxA1g6ju0pNV5m0gxZh8EvpMaNHSsD0sATlRjuzMVaeQPr0RqPj/aZMpAhM880bov0zBOak3fSCMOD1ccC1bJujp8TidbUXMKxmkYWb5qTn1c5nQa3FH2Xu25lOF/5Vj1kAbPzzl9iYiyWD7TZ4W0YgoFFj5QQfBW7xSHFz7CiDH48/x8PD74o+aoXXVVAY7AhweTFu2wGVcHONhZ8fxV5dpQfaEGXyOQwGzTnlnHlGE4d6j55bGHzOOazGB5sTCZSQq9odmebtKODmflHdeNV+S6+OBhGPduh+TgkHI6WYjv/xabymhc6M98lYzS9GlhkO1zowVoJKLDy1uzWE1hA0eC6l67ZjvhmzBViOmgMcOmeGGXqBO2gdgSaa7ogU2vGQlaMr2bDgWIdkmZoHu/8z19YXQz14xE4ERpKQMkJ507DlxCfYGZLCYJHPsbN0DwnD+SD+QMMlNVekOrE7zBCzo81YHpZT69H5182DUiiGuRZfXuBHzYRbl5KixnNyejVhhmrpp0BpYnphumsAEVhcLuNVqW0UYpC3bTcbxNbcsNfTyrXc4xSWLhIQWFnwZEhVEh5Cqq7cCnV1rfbY8DIMAhQso1Ld2/O2R8h8yOvNNZIK9udghE5ilmdgL+bYfv1hPZBTZ33KBXux3u4TgsV1O6toq+VYJ4YKvz24Eo5fLaTKop1Hjaf48uT67wetJR1zU113jU7BkqLBK06FTadZx/TDU6nzGbu8Tp5KRBSZVmrCyUi4PvcInlrAg6p3JSOrKJLUcx8Mr2Xtcz/3u0IZQiaXZdHV4zS8dbn2VZeDiikjq+ndQuxLDqZ4yubsyeKgeS0JxuCmu0ZcD+sJzp8uSsZ9xpSpMO5S3p9BexzIhhEkTSkGzFup5qQKkGaGW4qy8ttpM3iUGmscwd50tZrGQacgOf/aGg9MW7C/lw8KXAML33n+/hVIt1KUJzmDYas/eoY4330gk4qJbIUkughkb99K2V/RFZd2PRYPo4Wt6bxWEKG0ARAoSZXOXQUN4gZIEXAsoFFTYOFGuqtu7lACYSMtKLr/R4pxOSg75+H705yobkQiyRUzZzcpjHNjXlQMo1j2TqsfVJYoNSZjnL4m/LbPUfSH/a4Sn9aiWq1ZAIzS+hvUUwhqtIU35t4/BfRyUDlZ29Q76Dk5Ka3eS0ydI0nFQfnEXDrDYl9MMH98QGC/IjGnfTQXVcrg66AAraDzu2kxZqznwBDvysKDYr7GSJb/vjnPC7SAYy00pUvNxqYK+WTDJL8xegSvIhaSIKSHcBguaXnJx5OtHhZ2Bt3WWqwdsKv5M+50n+k7ifwX3PY+9vvOcMvCr8F+GcpOvPaCkkfo11hzhHq9S+hxzpw/b016RtltzRhR3+PT+Mnzdcz06/+BrFXnF6fpmwTLjG/xSlnfeq8F+Fc5Kuv6KlEPWcP16x+t9ETpvtLPlj0jyzQn5hhwu78RAMBANXMBAdfgXLYSMYuIuB6PC7mA+7wcAVDESHX8Fy2AgG7mIgOvwu5sNuMHAFA9HhV7AcNoKBuxiIDr+L+bAbDFzBQHT4FSyHjWDgLgaiw+9iPuwGA1cwEB1+BcthIxi4i4Ho8LuYD7vBwBUMRIdfwXLYCAbuYuA/ozxbzJ6dZBgAAAAASUVORK5CYII=;" vertex="1" parent="EegwAHwZHiU61Y2vCCrE-1">
          <mxGeometry x="39" y="40" width="331" height="34" as="geometry" />
        </mxCell>
      </root>
    </mxGraphModel>
  </diagram>
  <diagram name="7" id="AqKhqERotOoI3pbWqjlD">
    <mxGraphModel dx="1434" dy="836" grid="1" gridSize="10" guides="1" tooltips="1" connect="1" arrows="1" fold="1" page="1" pageScale="1" pageWidth="827" pageHeight="1169" math="0" shadow="0">
      <root>
        <mxCell id="3j60Onw1RpqEuONLTbcD-0" />
        <mxCell id="3j60Onw1RpqEuONLTbcD-1" parent="3j60Onw1RpqEuONLTbcD-0" />
        <mxCell id="3j60Onw1RpqEuONLTbcD-2" value="42" style="ellipse;whiteSpace=wrap;html=1;aspect=fixed;fillColor=#1ba1e2;fontColor=#ffffff;strokeColor=#006EAF;" vertex="1" parent="3j60Onw1RpqEuONLTbcD-1">
          <mxGeometry x="560" y="280" width="50" height="50" as="geometry" />
        </mxCell>
        <mxCell id="3j60Onw1RpqEuONLTbcD-3" value="66" style="ellipse;whiteSpace=wrap;html=1;aspect=fixed;" vertex="1" parent="3j60Onw1RpqEuONLTbcD-1">
          <mxGeometry x="690" y="280" width="50" height="50" as="geometry" />
        </mxCell>
        <mxCell id="3j60Onw1RpqEuONLTbcD-4" value="133" style="ellipse;whiteSpace=wrap;html=1;aspect=fixed;" vertex="1" parent="3j60Onw1RpqEuONLTbcD-1">
          <mxGeometry x="20" y="380" width="50" height="50" as="geometry" />
        </mxCell>
        <mxCell id="3j60Onw1RpqEuONLTbcD-5" value="111" style="ellipse;whiteSpace=wrap;html=1;aspect=fixed;" vertex="1" parent="3j60Onw1RpqEuONLTbcD-1">
          <mxGeometry x="140" y="380" width="50" height="50" as="geometry" />
        </mxCell>
        <mxCell id="3j60Onw1RpqEuONLTbcD-6" value="59" style="ellipse;whiteSpace=wrap;html=1;aspect=fixed;" vertex="1" parent="3j60Onw1RpqEuONLTbcD-1">
          <mxGeometry x="260" y="380" width="50" height="50" as="geometry" />
        </mxCell>
        <mxCell id="3j60Onw1RpqEuONLTbcD-7" value="83" style="ellipse;whiteSpace=wrap;html=1;aspect=fixed;" vertex="1" parent="3j60Onw1RpqEuONLTbcD-1">
          <mxGeometry x="370" y="380" width="50" height="50" as="geometry" />
        </mxCell>
        <mxCell id="3j60Onw1RpqEuONLTbcD-8" value="53" style="ellipse;whiteSpace=wrap;html=1;aspect=fixed;" vertex="1" parent="3j60Onw1RpqEuONLTbcD-1">
          <mxGeometry x="310" y="280" width="50" height="50" as="geometry" />
        </mxCell>
        <mxCell id="3j60Onw1RpqEuONLTbcD-9" value="103" style="ellipse;whiteSpace=wrap;html=1;aspect=fixed;direction=south;" vertex="1" parent="3j60Onw1RpqEuONLTbcD-1">
          <mxGeometry x="80" y="280" width="50" height="50" as="geometry" />
        </mxCell>
        <mxCell id="3j60Onw1RpqEuONLTbcD-10" value="25" style="ellipse;whiteSpace=wrap;html=1;aspect=fixed;fillColor=#1ba1e2;fontColor=#ffffff;strokeColor=#006EAF;" vertex="1" parent="3j60Onw1RpqEuONLTbcD-1">
          <mxGeometry x="620" y="170" width="50" height="50" as="geometry" />
        </mxCell>
        <mxCell id="3j60Onw1RpqEuONLTbcD-11" value="37" style="ellipse;whiteSpace=wrap;html=1;aspect=fixed;" vertex="1" parent="3j60Onw1RpqEuONLTbcD-1">
          <mxGeometry x="179.5" y="170" width="50" height="50" as="geometry" />
        </mxCell>
        <mxCell id="3j60Onw1RpqEuONLTbcD-12" value="9" style="ellipse;whiteSpace=wrap;html=1;aspect=fixed;fillColor=#1ba1e2;fontColor=#ffffff;strokeColor=#006EAF;" vertex="1" parent="3j60Onw1RpqEuONLTbcD-1">
          <mxGeometry x="370" y="80" width="50" height="50" as="geometry" />
        </mxCell>
        <mxCell id="3j60Onw1RpqEuONLTbcD-13" value="123" style="ellipse;whiteSpace=wrap;html=1;aspect=fixed;fillColor=#1ba1e2;fontColor=#ffffff;strokeColor=#006EAF;" vertex="1" parent="3j60Onw1RpqEuONLTbcD-1">
          <mxGeometry x="520" y="380" width="50" height="50" as="geometry" />
        </mxCell>
        <mxCell id="3j60Onw1RpqEuONLTbcD-14" value="" style="endArrow=none;html=1;rounded=0;entryX=0;entryY=0.5;entryDx=0;entryDy=0;exitX=0.5;exitY=0;exitDx=0;exitDy=0;" edge="1" parent="3j60Onw1RpqEuONLTbcD-1" source="3j60Onw1RpqEuONLTbcD-11" target="3j60Onw1RpqEuONLTbcD-12">
          <mxGeometry width="50" height="50" relative="1" as="geometry">
            <mxPoint x="350" y="250" as="sourcePoint" />
            <mxPoint x="400" y="200" as="targetPoint" />
          </mxGeometry>
        </mxCell>
        <mxCell id="3j60Onw1RpqEuONLTbcD-15" value="" style="endArrow=none;html=1;rounded=0;entryX=0.5;entryY=0;entryDx=0;entryDy=0;exitX=1;exitY=0.5;exitDx=0;exitDy=0;" edge="1" parent="3j60Onw1RpqEuONLTbcD-1" source="3j60Onw1RpqEuONLTbcD-12" target="3j60Onw1RpqEuONLTbcD-10">
          <mxGeometry width="50" height="50" relative="1" as="geometry">
            <mxPoint x="234" y="195" as="sourcePoint" />
            <mxPoint x="405" y="140" as="targetPoint" />
          </mxGeometry>
        </mxCell>
        <mxCell id="3j60Onw1RpqEuONLTbcD-16" value="" style="endArrow=none;html=1;rounded=0;entryX=0;entryY=0.5;entryDx=0;entryDy=0;exitX=0;exitY=1;exitDx=0;exitDy=0;" edge="1" parent="3j60Onw1RpqEuONLTbcD-1" source="3j60Onw1RpqEuONLTbcD-11" target="3j60Onw1RpqEuONLTbcD-9">
          <mxGeometry width="50" height="50" relative="1" as="geometry">
            <mxPoint x="244" y="205" as="sourcePoint" />
            <mxPoint x="415" y="150" as="targetPoint" />
          </mxGeometry>
        </mxCell>
        <mxCell id="3j60Onw1RpqEuONLTbcD-17" value="" style="endArrow=none;html=1;rounded=0;entryX=0.5;entryY=0;entryDx=0;entryDy=0;exitX=1;exitY=1;exitDx=0;exitDy=0;" edge="1" parent="3j60Onw1RpqEuONLTbcD-1" source="3j60Onw1RpqEuONLTbcD-11" target="3j60Onw1RpqEuONLTbcD-8">
          <mxGeometry width="50" height="50" relative="1" as="geometry">
            <mxPoint x="254" y="215" as="sourcePoint" />
            <mxPoint x="425" y="160" as="targetPoint" />
          </mxGeometry>
        </mxCell>
        <mxCell id="3j60Onw1RpqEuONLTbcD-18" value="" style="endArrow=none;html=1;rounded=0;entryX=0.5;entryY=0;entryDx=0;entryDy=0;exitX=1;exitY=1;exitDx=0;exitDy=0;" edge="1" parent="3j60Onw1RpqEuONLTbcD-1" source="3j60Onw1RpqEuONLTbcD-8" target="3j60Onw1RpqEuONLTbcD-7">
          <mxGeometry width="50" height="50" relative="1" as="geometry">
            <mxPoint x="300" y="330" as="sourcePoint" />
            <mxPoint x="435" y="170" as="targetPoint" />
          </mxGeometry>
        </mxCell>
        <mxCell id="3j60Onw1RpqEuONLTbcD-19" value="" style="endArrow=none;html=1;rounded=0;entryX=0.5;entryY=0;entryDx=0;entryDy=0;exitX=0;exitY=1;exitDx=0;exitDy=0;" edge="1" parent="3j60Onw1RpqEuONLTbcD-1" source="3j60Onw1RpqEuONLTbcD-8" target="3j60Onw1RpqEuONLTbcD-6">
          <mxGeometry width="50" height="50" relative="1" as="geometry">
            <mxPoint x="274" y="235" as="sourcePoint" />
            <mxPoint x="445" y="180" as="targetPoint" />
          </mxGeometry>
        </mxCell>
        <mxCell id="3j60Onw1RpqEuONLTbcD-20" value="" style="endArrow=none;html=1;rounded=0;entryX=0.5;entryY=0;entryDx=0;entryDy=0;exitX=1;exitY=0;exitDx=0;exitDy=0;" edge="1" parent="3j60Onw1RpqEuONLTbcD-1" source="3j60Onw1RpqEuONLTbcD-9" target="3j60Onw1RpqEuONLTbcD-5">
          <mxGeometry width="50" height="50" relative="1" as="geometry">
            <mxPoint x="284" y="245" as="sourcePoint" />
            <mxPoint x="455" y="190" as="targetPoint" />
          </mxGeometry>
        </mxCell>
        <mxCell id="3j60Onw1RpqEuONLTbcD-21" value="" style="endArrow=none;html=1;rounded=0;entryX=0.5;entryY=0;entryDx=0;entryDy=0;exitX=1;exitY=1;exitDx=0;exitDy=0;" edge="1" parent="3j60Onw1RpqEuONLTbcD-1" source="3j60Onw1RpqEuONLTbcD-9" target="3j60Onw1RpqEuONLTbcD-4">
          <mxGeometry width="50" height="50" relative="1" as="geometry">
            <mxPoint x="294" y="255" as="sourcePoint" />
            <mxPoint x="465" y="200" as="targetPoint" />
          </mxGeometry>
        </mxCell>
        <mxCell id="3j60Onw1RpqEuONLTbcD-22" value="" style="endArrow=none;html=1;rounded=0;exitX=0;exitY=1;exitDx=0;exitDy=0;entryX=0.5;entryY=0;entryDx=0;entryDy=0;" edge="1" parent="3j60Onw1RpqEuONLTbcD-1" source="3j60Onw1RpqEuONLTbcD-10" target="3j60Onw1RpqEuONLTbcD-2">
          <mxGeometry width="50" height="50" relative="1" as="geometry">
            <mxPoint x="384" y="345" as="sourcePoint" />
            <mxPoint x="555" y="290" as="targetPoint" />
          </mxGeometry>
        </mxCell>
        <mxCell id="3j60Onw1RpqEuONLTbcD-23" value="" style="endArrow=none;html=1;rounded=0;entryX=1;entryY=1;entryDx=0;entryDy=0;exitX=0.5;exitY=0;exitDx=0;exitDy=0;" edge="1" parent="3j60Onw1RpqEuONLTbcD-1" source="3j60Onw1RpqEuONLTbcD-3" target="3j60Onw1RpqEuONLTbcD-10">
          <mxGeometry width="50" height="50" relative="1" as="geometry">
            <mxPoint x="394" y="355" as="sourcePoint" />
            <mxPoint x="565" y="300" as="targetPoint" />
          </mxGeometry>
        </mxCell>
        <mxCell id="3j60Onw1RpqEuONLTbcD-24" value="" style="endArrow=none;html=1;rounded=0;entryX=0;entryY=1;entryDx=0;entryDy=0;exitX=0.5;exitY=0;exitDx=0;exitDy=0;" edge="1" parent="3j60Onw1RpqEuONLTbcD-1" source="3j60Onw1RpqEuONLTbcD-13" target="3j60Onw1RpqEuONLTbcD-2">
          <mxGeometry width="50" height="50" relative="1" as="geometry">
            <mxPoint x="404" y="365" as="sourcePoint" />
            <mxPoint x="575" y="310" as="targetPoint" />
          </mxGeometry>
        </mxCell>
        <mxCell id="3j60Onw1RpqEuONLTbcD-25" value="" style="shape=image;verticalLabelPosition=bottom;labelBackgroundColor=default;verticalAlign=top;aspect=fixed;imageAspect=0;image=data:image/png,iVBORw0KGgoAAAANSUhEUgAAAUsAAAAiCAIAAABZWWzvAAAGy0lEQVR4Ae1b0Y2kMAy9nqhmpxVEMSsqWYlKVpo6ODmJw7NjQ9idBWlkPo5gnGf72U7C3N2/Na5gIBh4Xwb+vW9oEVkwEAys0eFRBMHAOzMQHf7O2Y3YgoHo8KiBYOCdGYgOf+fsRmzBQHR41EAw8M4MRIe/c3YjtmAgOjxqIBh4Zwaiw985uxFbMHCiw5+fj2FakLJlGvgaxYuv0Zbj5Hb8NQ4f8xPlDg55ki+lj3NhvOkPw/hVXzznD3ZzkP5XFWNAswAkayzj8Ji/lbYpVDr0CO5JECd8AyKJnHRgmMNwHOlSk/f4FNnw7CZ5S4uHs8kbGk0Lrb6KKCVRVmYLBOQMAyRrk3fVkjK9lc2WxC4cdpBSvIGs6xas6jWecPre2+ElAOCRqOFg6C2PV3K6VKqQ7/uWq7mCrKuHkzwppJAP4JJtAfxZv+cH++b6b6NkaUmwLM2cFdmcJVVKaEGjezTmfIO8h0Y3nO/5gaxaLoAsxcKULtPQ1+QtLSThuYTJjNG4yCEX4IAadugDUWoyPC5jJRaltEUB4YdEOWSersniQ2K7OpBqhklDAsHj88OODqdMEBGjaCdM25rWnlLNouu6szgMj3GCZWJdHRwZObaEHbzUrzpdjlVtGqQsDsM0Qr0mJ4fhMY114SAu0tFGCQUWPMju3bZ9J3yYKYZuOmih5I4VM8wHxSexxA1g6ju0pNV5m0gxZh8EvpMaNHSsD0sATlRjuzMVaeQPr0RqPj/aZMpAhM880bov0zBOak3fSCMOD1ccC1bJujp8TidbUXMKxmkYWb5qTn1c5nQa3FH2Xu25lOF/5Vj1kAbPzzl9iYiyWD7TZ4W0YgoFFj5QQfBW7xSHFz7CiDH48/x8PD74o+aoXXVVAY7AhweTFu2wGVcHONhZ8fxV5dpQfaEGXyOQwGzTnlnHlGE4d6j55bGHzOOazGB5sTCZSQq9odmebtKODmflHdeNV+S6+OBhGPduh+TgkHI6WYjv/xabymhc6M98lYzS9GlhkO1zowVoJKLDy1uzWE1hA0eC6l67ZjvhmzBViOmgMcOmeGGXqBO2gdgSaa7ogU2vGQlaMr2bDgWIdkmZoHu/8z19YXQz14xE4ERpKQMkJ507DlxCfYGZLCYJHPsbN0DwnD+SD+QMMlNVekOrE7zBCzo81YHpZT69H5182DUiiGuRZfXuBHzYRbl5KixnNyejVhhmrpp0BpYnphumsAEVhcLuNVqW0UYpC3bTcbxNbcsNfTyrXc4xSWLhIQWFnwZEhVEh5Cqq7cCnV1rfbY8DIMAhQso1Ld2/O2R8h8yOvNNZIK9udghE5ilmdgL+bYfv1hPZBTZ33KBXux3u4TgsV1O6toq+VYJ4YKvz24Eo5fLaTKop1Hjaf48uT67wetJR1zU113jU7BkqLBK06FTadZx/TDU6nzGbu8Tp5KRBSZVmrCyUi4PvcInlrAg6p3JSOrKJLUcx8Mr2Xtcz/3u0IZQiaXZdHV4zS8dbn2VZeDiikjq+ndQuxLDqZ4yubsyeKgeS0JxuCmu0ZcD+sJzp8uSsZ9xpSpMO5S3p9BexzIhhEkTSkGzFup5qQKkGaGW4qy8ttpM3iUGmscwd50tZrGQacgOf/aGg9MW7C/lw8KXAML33n+/hVIt1KUJzmDYas/eoY4330gk4qJbIUkughkb99K2V/RFZd2PRYPo4Wt6bxWEKG0ARAoSZXOXQUN4gZIEXAsoFFTYOFGuqtu7lACYSMtKLr/R4pxOSg75+H705yobkQiyRUzZzcpjHNjXlQMo1j2TqsfVJYoNSZjnL4m/LbPUfSH/a4Sn9aiWq1ZAIzS+hvUUwhqtIU35t4/BfRyUDlZ29Q76Dk5Ka3eS0ydI0nFQfnEXDrDYl9MMH98QGC/IjGnfTQXVcrg66AAraDzu2kxZqznwBDvysKDYr7GSJb/vjnPC7SAYy00pUvNxqYK+WTDJL8xegSvIhaSIKSHcBguaXnJx5OtHhZ2Bt3WWqwdsKv5M+50n+k7ifwX3PY+9vvOcMvCr8F+GcpOvPaCkkfo11hzhHq9S+hxzpw/b016RtltzRhR3+PT+Mnzdcz06/+BrFXnF6fpmwTLjG/xSlnfeq8F+Fc5Kuv6KlEPWcP16x+t9ETpvtLPlj0jyzQn5hhwu78RAMBANXMBAdfgXLYSMYuIuB6PC7mA+7wcAVDESHX8Fy2AgG7mIgOvwu5sNuMHAFA9HhV7AcNoKBuxiIDr+L+bAbDFzBQHT4FSyHjWDgLgaiw+9iPuwGA1cwEB1+BcthIxi4i4Ho8LuYD7vBwBUMRIdfwXLYCAbuYuA/ozxbzJ6dZBgAAAAASUVORK5CYII=;" vertex="1" parent="3j60Onw1RpqEuONLTbcD-1">
          <mxGeometry x="39" y="40" width="331" height="34" as="geometry" />
        </mxCell>
      </root>
    </mxGraphModel>
  </diagram>
</mxfile>
